<svg id="Activity_blue" xmlns="http://www.w3.org/2000/svg" width="24" height="24" viewBox="0 0 24 24">
  <path id="Path_7466" data-name="Path 7466" d="M0,0H24V24H0Z" fill="none"/>
  <path id="Path_7467" data-name="Path 7467" d="M7.617,8.712l3.205-2.328A2,2,0,0,1,12.065,6a2.616,2.616,0,0,1,2.427,1.82A4.412,4.412,0,0,0,15,9a4.992,4.992,0,0,0,4,2v2a6.986,6.986,0,0,1-5.4-2.547l-.7,3.955,2.061,1.73,2.223,6.108-1.88.684-2.04-5.6-3.39-2.845a2,2,0,0,1-.713-1.9l.509-2.885-.677.492L6.867,13.112,5.249,11.936,7.6,8.7ZM13.5,5.5a2,2,0,1,1,2-2A2,2,0,0,1,13.5,5.5ZM10.528,18.681l-3.214,3.83L5.782,21.226,8.758,17.68,9.5,15.5,11.3,17l-.767,1.681Z" fill="#1c3ece"/>
</svg>
