<svg xmlns="http://www.w3.org/2000/svg" width="36" height="36" viewBox="0 0 36 36"><g transform="translate(7348 -13357)"><g transform="translate(-7348.667 13356.334)"><path d="M9.6,9.06A1.6,1.6,0,0,1,8,7.464v-3.2a1.6,1.6,0,0,1,3.2,0v3.2a1.6,1.6,0,0,1-1.6,1.6Zm16.009,0a1.6,1.6,0,0,1-1.6-1.6v-3.2a1.6,1.6,0,0,1,3.2,0v3.2a1.6,1.6,0,0,1-1.6,1.6Z" transform="translate(1.061)" fill="#b3d8e3"/><path d="M29.866,5.334h-1.6v1.6a1.6,1.6,0,0,1-3.2,0v-1.6h-12.8v1.6a1.6,1.6,0,0,1-3.2,0v-1.6h-1.6a4.8,4.8,0,0,0-4.8,4.8v3.2h32v-3.2A4.8,4.8,0,0,0,29.866,5.334Z" transform="translate(0 0.531)" fill="#04a6d6"/><path d="M9.6,19.2A1.6,1.6,0,1,0,8,17.6,1.6,1.6,0,0,0,9.6,19.2Z" transform="translate(1.067 2.668)" fill="#04a6d6"/><path d="M9.6,24.53a1.6,1.6,0,1,0-1.6-1.6A1.6,1.6,0,0,0,9.6,24.53Z" transform="translate(1.067 3.735)" fill="#04a6d6"/><path d="M16.265,19.2a1.6,1.6,0,1,0-1.6-1.6A1.6,1.6,0,0,0,16.265,19.2Z" transform="translate(2.401 2.668)" fill="#04a6d6"/><path d="M16.265,24.53a1.6,1.6,0,1,0-1.6-1.6A1.6,1.6,0,0,0,16.265,24.53Z" transform="translate(2.401 3.735)" fill="#04a6d6"/><path d="M22.932,19.2a1.6,1.6,0,1,0-1.6-1.6A1.6,1.6,0,0,0,22.932,19.2Z" transform="translate(3.735 2.668)" fill="#04a6d6"/><path d="M22.932,24.53a1.6,1.6,0,1,0-1.6-1.6A1.6,1.6,0,0,0,22.932,24.53Z" transform="translate(3.735 3.735)" fill="#04a6d6"/><path d="M2.667,12V27.986a4.8,4.8,0,0,0,4.8,4.8h22.4a4.8,4.8,0,0,0,4.8-4.8V12Zm8,14.387a1.6,1.6,0,1,1,1.6-1.6A1.6,1.6,0,0,1,10.666,26.387Zm0-6.394a1.6,1.6,0,1,1,1.6-1.6A1.6,1.6,0,0,1,10.666,19.993Zm8,6.394a1.6,1.6,0,1,1,1.6-1.6A1.6,1.6,0,0,1,18.666,26.387Zm0-6.394a1.6,1.6,0,1,1,1.6-1.6A1.6,1.6,0,0,1,18.666,19.993Zm8,6.394a1.6,1.6,0,1,1,1.6-1.6A1.6,1.6,0,0,1,26.666,26.387Zm0-6.394a1.6,1.6,0,1,1,1.6-1.6A1.6,1.6,0,0,1,26.666,19.993Z" transform="translate(0 1.885)" fill="#d3edf5"/></g><rect width="36" height="36" transform="translate(-7348 13357)" fill="none"/></g></svg>