<svg xmlns="http://www.w3.org/2000/svg" width="24" height="24" viewBox="0 0 24 24"><g transform="translate(1418 -640)"><rect width="24" height="24" rx="3" transform="translate(-1418 640)" fill="none"/><g transform="translate(-1415.693 642.579)"><path d="M2-.75H12A2.753,2.753,0,0,1,14.75,2V12A2.753,2.753,0,0,1,12,14.75H2A2.753,2.753,0,0,1-.75,12V2A2.753,2.753,0,0,1,2-.75Zm10,14A1.251,1.251,0,0,0,13.25,12V2A1.251,1.251,0,0,0,12,.75H2A1.251,1.251,0,0,0,.75,2V12A1.251,1.251,0,0,0,2,13.25Z" transform="translate(2.693 3.421)" fill="#151414"/><path d="M0,3.75A.75.75,0,0,1-.75,3V0A.75.75,0,0,1,0-.75.75.75,0,0,1,.75,0V3A.75.75,0,0,1,0,3.75Z" transform="translate(12.693 1.421)" fill="#151414"/><path d="M0,3.75A.75.75,0,0,1-.75,3V0A.75.75,0,0,1,0-.75.75.75,0,0,1,.75,0V3A.75.75,0,0,1,0,3.75Z" transform="translate(6.693 1.421)" fill="#151414"/><path d="M14,.75H0A.75.75,0,0,1-.75,0,.75.75,0,0,1,0-.75H14a.75.75,0,0,1,.75.75A.75.75,0,0,1,14,.75Z" transform="translate(2.693 7.421)" fill="#151414"/></g></g></svg>