<svg xmlns="http://www.w3.org/2000/svg" width="16.001" height="16" viewBox="0 0 16.001 16">
  <g id="Call" transform="translate(-318.167 -49.166)">
    <path id="Path_7453" data-name="Path 7453" d="M19,14.929v3.143a.889.889,0,0,1-.827.887c-.388.027-.706.041-.951.041A14.222,14.222,0,0,1,3,4.778q0-.368.041-.951A.889.889,0,0,1,3.928,3H7.071a.444.444,0,0,1,.443.4c.02.2.039.367.057.491A12.356,12.356,0,0,0,8.644,7.447a.4.4,0,0,1-.131.5L6.6,9.322a11.6,11.6,0,0,0,6.084,6.084l1.369-1.915a.411.411,0,0,1,.509-.132,12.356,12.356,0,0,0,3.556,1.071c.124.018.286.037.489.057a.444.444,0,0,1,.4.443Z" transform="translate(315.167 46.166)" fill="#1c3ece"/>
  </g>
</svg>
