<svg xmlns="http://www.w3.org/2000/svg" width="24" height="24" viewBox="0 0 24 24"><g transform="translate(5474 -15915)"><rect width="24" height="24" transform="translate(-5474 15915)" fill="none"/><g transform="translate(-5472 15917)"><path d="M0,0H20V20H0Z" fill="none"/><path d="M7.775,3h4.95l1.65,1.639h3.3a.822.822,0,0,1,.825.819V16.929a.822.822,0,0,1-.825.819H2.825A.822.822,0,0,1,2,16.929V5.458a.822.822,0,0,1,.825-.819h3.3ZM10.25,16.11A4.916,4.916,0,1,0,5.3,11.194,4.933,4.933,0,0,0,10.25,16.11Zm0-1.639a3.278,3.278,0,1,1,3.3-3.277A3.289,3.289,0,0,1,10.25,14.471Z" transform="translate(-0.25 -0.374)" fill="#151414"/></g></g></svg>