<svg xmlns="http://www.w3.org/2000/svg" width="36" height="36" viewBox="0 0 36 36"><g transform="translate(7341 -13569)"><g transform="translate(-7339 13571)"><g transform="translate(0)"><path d="M18.153,32H13.847a1.743,1.743,0,0,1-1.394-2.79l.727-.968v-.9a11.512,11.512,0,0,1-3.207-1.33l-.635.635-.171,1.2a1.744,1.744,0,0,1-2.959.987L3.164,25.792a1.743,1.743,0,0,1,.987-2.959l1.2-.171.635-.635a11.511,11.511,0,0,1-1.33-3.207h-.9l-.968.726A1.743,1.743,0,0,1,0,18.153V13.847a1.743,1.743,0,0,1,2.79-1.394l.968.727h.9a11.513,11.513,0,0,1,1.33-3.207l-.635-.635-1.2-.171a1.744,1.744,0,0,1-.987-2.959L6.208,3.164a1.743,1.743,0,0,1,2.959.987l.171,1.2.635.635a11.511,11.511,0,0,1,3.207-1.33v-.9l-.726-.968A1.743,1.743,0,0,1,13.847,0h4.305a1.743,1.743,0,0,1,1.394,2.79l-.727.968v.9a11.513,11.513,0,0,1,3.207,1.33l.635-.635.171-1.2a1.744,1.744,0,0,1,2.959-.987l3.044,3.044a1.743,1.743,0,0,1-.987,2.959l-1.2.171-.635.635a11.511,11.511,0,0,1,1.33,3.207h.9l.968-.727A1.743,1.743,0,0,1,32,13.847v4.305a1.743,1.743,0,0,1-2.79,1.394l-.968-.727h-.9a11.513,11.513,0,0,1-1.33,3.207l.635.635,1.2.171a1.744,1.744,0,0,1,.987,2.959l-3.044,3.044a1.743,1.743,0,0,1-2.959-.987l-.171-1.2-.635-.635a11.512,11.512,0,0,1-3.207,1.33v.9l.727.968A1.744,1.744,0,0,1,18.153,32Z" transform="translate(0)" fill="#04a6d6"/></g><g transform="translate(7.806 9.045)"><path d="M129.456,153.227a3.832,3.832,0,1,1,3.832-3.832A3.837,3.837,0,0,1,129.456,153.227Z" transform="translate(-125.624 -145.562)" fill="#d3edf5"/></g><g transform="translate(16.877 16.877)"><path d="M274,276.872A2.873,2.873,0,1,1,276.872,274,2.877,2.877,0,0,1,274,276.872Z" transform="translate(-271.125 -271.125)" fill="#d3edf5"/></g><g transform="translate(11.486 20.164)"><path d="M184.943,324.91a.955.955,0,1,0-.955-.955A.966.966,0,0,0,184.943,324.91Z" transform="translate(-183.987 -323)" fill="#d3edf5"/></g><g transform="translate(20.975 13.859)"><path d="M336.943,223.91a.955.955,0,1,0-.955-.955A.966.966,0,0,0,336.943,223.91Z" transform="translate(-335.987 -222)" fill="#d3edf5"/></g><g transform="translate(17.978 9.426)"><path d="M288.943,152.91a.955.955,0,1,0-.955-.955A.966.966,0,0,0,288.943,152.91Z" transform="translate(-287.987 -151)" fill="#d3edf5"/></g></g><rect width="36" height="36" transform="translate(-7341 13569)" fill="none"/></g></svg>