<svg width="24" height="24" viewBox="0 0 24 24" fill="none" xmlns="http://www.w3.org/2000/svg">
<path d="M17.002 6.00201H22.002V8.00201H20.002V21.002C20.002 21.2672 19.8966 21.5216 19.7091 21.7091C19.5215 21.8967 19.2672 22.002 19.002 22.002H5.00195C4.73674 22.002 4.48238 21.8967 4.29485 21.7091C4.10731 21.5216 4.00195 21.2672 4.00195 21.002V8.00201H2.00195V6.00201H7.00195V3.00201C7.00195 2.7368 7.10731 2.48244 7.29485 2.29491C7.48238 2.10737 7.73674 2.00201 8.00195 2.00201H16.002C16.2672 2.00201 16.5215 2.10737 16.7091 2.29491C16.8966 2.48244 17.002 2.7368 17.002 3.00201V6.00201ZM18.002 8.00201H6.00195V20.002H18.002V8.00201ZM9.00195 11.002H11.002V17.002H9.00195V11.002ZM13.002 11.002H15.002V17.002H13.002V11.002ZM9.00195 4.00201V6.00201H15.002V4.00201H9.00195Z" fill="#151414"/>
</svg>
