<svg xmlns="http://www.w3.org/2000/svg" width="220.923" height="354.403" viewBox="0 0 220.923 354.403"><g transform="translate(0 3)"><g transform="translate(31.983 0)"><path d="M15,0A15,15,0,0,0,0,15V333.4a15,15,0,0,0,15,15H170.94a15,15,0,0,0,15-15V15a15,15,0,0,0-15-15H15m0-3H170.94a17.988,17.988,0,0,1,18,18V333.4a17.988,17.988,0,0,1-18,18H15a17.988,17.988,0,0,1-18-18V15A17.988,17.988,0,0,1,15-3Z" transform="translate(185.94 348.403) rotate(180)" fill="#cbe1fd"/></g><ellipse cx="13.241" cy="13.241" rx="13.241" ry="13.241" transform="translate(111.795 313.864)" fill="#cbe1fd"/><g transform="translate(0 8.762)"><g transform="translate(40.453 0)"><path d="M0,0H168.7a0,0,0,0,1,0,0V278.793a20,20,0,0,1-20,20H20a20,20,0,0,1-20-20V0A0,0,0,0,1,0,0Z" transform="translate(168.697 298.793) rotate(180)" fill="#cbe1fd"/></g><g transform="translate(0 22.878)"><g transform="translate(0 0)"><path d="M545.464,939.48c.23,7.53.845,42,3.283,77.55-34.961,0-25.943.479-48.836.479l-1.937-8.024c-.164,2.607-.328,5.33-.5,8.393-30.537,0-22.75-.259-46.41-.259-1.711-35.722-3.563-73.524-3.426-77.555Z" transform="translate(-378.813 -741.749)" fill="#15a8b4"/><path d="M497.5,490.03c3.953,0,41.438,7.468,41.4,23.793-.037,17.88-19.024,76.752-17.465,87.546s11.736,25.067,7.052,27.119c-12.619,5.533-54.748,9.926-96.855-.813,0,0,4.393-9.917-3.176-52.993-4.133-23.505-5.1-68.477-1.574-73.16s24.728-9.526,32.5-10.966S497.5,490.03,497.5,490.03Z" transform="translate(-362.915 -429.498)" fill="#15a8b4"/><g transform="translate(58.822 60.401)"><path d="M648.02,490.25c-.938,5.411-11.311,128.128,2.073,189.189,0,0,21.7,2.962,43.889-5.377,0,0-12.6-76.749-13.383-89.534s9.018-78.608,3.084-82.233C663.971,490.25,648.02,490.25,648.02,490.25Z" transform="translate(-573.493 -490.25)" fill="#fff"/><path d="M451.168,493s2.974,116.564,3.635,187.752c0,0-21.4,5.356-39.863-2.984,0,0,7.254-86.168,7.358-97.142s-5.585-75.911.648-79.216C436.357,494.3,451.168,493,451.168,493Z" transform="translate(-414.94 -492.159)" fill="#fff"/></g><g transform="translate(0 67.95)"><g transform="translate(66.862 2.919)"><path d="M643.427,623.29c15.737-20.124-2.54-95.458-29.121-98.766-2.809-.349-8.722,1.779-9.119,19.436-.33,14.7,5.833,42.746,8.865,55.6-22.356,2.534-56.166,11.195-61.213,11.656-5.686.52-2.222,19.067,3.561,19.773C565.693,632.122,624.733,637.044,643.427,623.29Z" transform="translate(-516.708 -524.491)" fill="#fff"/><path d="M549.386,701.987a1.606,1.606,0,0,1,.6-1.413,5.978,5.978,0,0,1,1.435-.934,31.828,31.828,0,0,1,4.924-1.789c3.789-1.114,9.3-2.384,16.394-3.776,12.674-2.488,28.241-4.948,39.142-6.622-.675-2.987-1.393-6.6-2.139-10.742-.65-3.616-1.323-7.649-2-11.986-1.151-7.383-1.923-13.167-1.931-13.224l1.515-.2c.008.057.778,5.828,1.927,13.194,1.059,6.792,2.664,16.369,4.3,23.418l.186.8-.815.125c-10.559,1.618-26.077,4.056-38.872,6.537-6.933,1.344-12.414,2.575-16.291,3.659a41.166,41.166,0,0,0-5.034,1.683c-1.652.717-1.829,1.121-1.835,1.138a.182.182,0,0,0,.005-.081Z" transform="translate(-516.317 -612.534)" fill="#e4effd"/><path d="M-.787,32.372l-1.238-.9L21.838-1.467l1.238.9Z" transform="translate(4.42 70.048)" fill="#151414"/><path d="M478.358,809.011c-2.773-2.446-19.387-6.328-21.17-5.169s-15.948,4.316-15.948,4.316.385,3.405,6.025,2.65c6.554-.88,7.985.459,7.985.459s-.8,3.622,1.278,4.931-.559,3.326,2.36,5.9c1.712,1.507,1.834,3.439,4.023,3.785s14.108-5.616,16.184-9.782C480.849,812.563,479.99,810.469,478.358,809.011Z" transform="translate(-441.24 -718.298)" fill="#fbc5b6"/></g><path d="M248.738,604.717c-4.6-4.069-13.163-26.5,1.269-26.477,3.207,0,11.112,1.128,20.1,3.194,3.143-18.9,9.556-48.5,19.9-57.205,5.649-4.757,13.894-8.135,16.7-9.076,17.77-5.955,12.971,116.75-14.643,111.938C282.815,625.465,257.255,612.237,248.738,604.717Z" transform="translate(-236.041 -514.943)" fill="#fff"/><path d="M426.754,698.376l-1.509-.242c.731-4.564.2-10.958-.478-19.053-.516-6.18-1.1-13.185-1.326-21.377l1.528-.042c.224,8.149.807,15.132,1.321,21.292.348,4.171.649,7.773.775,10.99A43.387,43.387,0,0,1,426.754,698.376Z" transform="translate(-362.02 -614.032)" fill="#e4effd"/><g transform="translate(0 54.401)"><path d="M267.536,768.2h51.688a2.446,2.446,0,0,0,2.106-3.687l-40.848-69.427a4.439,4.439,0,0,0-3.824-2.186H224.971a2.446,2.446,0,0,0-2.109,3.687l40.851,69.424A4.432,4.432,0,0,0,267.536,768.2Z" transform="translate(-222.523 -692.9)" fill="#15a8b4"/><path d="M345.2,790.515l3.406,5.9a1.571,1.571,0,0,0,1.2.758h4.732a1.572,1.572,0,0,1,1.2.758l2.721,4.714a1.575,1.575,0,0,0,1.2.758h5.894c.419,0,.562-.339.306-.758l-2.724-4.714c-.242-.419-.1-.758.321-.758h4.717c.419,0,.562-.339.306-.758l-3.405-5.9a1.571,1.571,0,0,0-1.2-.758h-4.7a1.581,1.581,0,0,1-1.2-.758l-2.721-4.714a1.574,1.574,0,0,0-1.2-.755h-5.9c-.419,0-.563.339-.321.755L350.561,789c.242.419.1.758-.321.758h-4.72C345.1,789.757,344.96,790.093,345.2,790.515Z" transform="translate(-307.617 -755.824)" fill="#fff"/></g><g transform="translate(0.577 63.682)"><path d="M240.9,741.051c-.458,1.975-.633,2.886-2.256,3.454h0c-1.743,1.272-4.891,1.586-8.865,1.693-3.078.086-2.446-5.438-2.446-5.438-1.052-.752-1.388-3.057-.767-5.09a4.9,4.9,0,0,1-1-5.127,5.526,5.526,0,0,1-1.012-4.475c.361-1.363,4.509-1.529,7.48-1.581,2.06-.131,3.72-.177,4.586-.22.917-.046,2.036,1.852,1.9,4.533a4.14,4.14,0,0,1,1.009,2.36c.19,2.3,1.262,5.808.853,8.132C240.214,740.082,240.984,740.693,240.9,741.051Z" transform="translate(-224.409 -723.959)" fill="#fbc5b6"/><path d="M228.706,730.162a.306.306,0,0,1-.009-.611,53.471,53.471,0,0,0,10.985-1.486l.018,0,.018,0a1.558,1.558,0,0,0,1.2-.7,2.188,2.188,0,0,0,.278-1.366,2.866,2.866,0,0,0-.6-1.524,1.454,1.454,0,0,0-1.213-.593c-1.269.083-5.834.635-8.561.966l-1.667.2a.306.306,0,0,1-.072-.607l1.665-.2c2.734-.331,7.309-.885,8.595-.969a2.045,2.045,0,0,1,1.725.815,3.492,3.492,0,0,1,.736,1.856,2.8,2.8,0,0,1-.37,1.75,2.166,2.166,0,0,1-1.625.979,54.079,54.079,0,0,1-11.094,1.5Z" transform="translate(-227.18 -723.259)" fill="#f0bbad"/><path d="M232.475,746.063a.306.306,0,0,1-.024-.61c4.887-.387,7.726-.782,9.247-1.045a13.351,13.351,0,0,0,2.172-.489l.045-.02.046,0c.166-.014.341-.193.48-.49a3.384,3.384,0,0,0,.256-1.533,3.051,3.051,0,0,0-.49-1.592,1.847,1.847,0,0,0-1.809-.753.306.306,0,0,1-.057-.609,2.437,2.437,0,0,1,2.365,1.01,3.571,3.571,0,0,1,.6,1.915,4.008,4.008,0,0,1-.313,1.821,1.3,1.3,0,0,1-.935.835c-.342.124-2.666.857-11.561,1.561Z" transform="translate(-229.797 -734.121)" fill="#f0bbad"/><path d="M234.675,762.426a.306.306,0,0,1-.018-.611c8.944-.55,11.881-1.595,11.909-1.605l.028-.01.029,0c.155-.025.325-.24.453-.576a4.353,4.353,0,0,0,.216-1.778,3.016,3.016,0,0,0-.547-1.651,1.17,1.17,0,0,0-1.182-.43.306.306,0,0,1-.1-.6,1.782,1.782,0,0,1,1.753.648,4.612,4.612,0,0,1,.427,4.033c-.264.69-.628.9-.9.956a19.072,19.072,0,0,1-2.613.606,83.111,83.111,0,0,1-9.443,1.026Z" transform="translate(-231.325 -745.385)" fill="#f0bbad"/><path d="M240.735,779.693a.306.306,0,0,1-.029-.61,47.46,47.46,0,0,0,7.189-1.1c1.809-.477,2.949-1.081,3.484-1.846a2.338,2.338,0,0,0,.264-2.027,1.031,1.031,0,0,0-.539-.7,2.578,2.578,0,0,0-1.577-.1,5.775,5.775,0,0,0-.954.256.306.306,0,0,1-.221-.57,6.293,6.293,0,0,1,1.056-.286,3.12,3.12,0,0,1,1.975.16,1.631,1.631,0,0,1,.852,1.1,3.54,3.54,0,0,1,.1,1.364,2.645,2.645,0,0,1-.459,1.167,4.061,4.061,0,0,1-1.477,1.22,11.054,11.054,0,0,1-2.353.867,48.012,48.012,0,0,1-7.286,1.119Z" transform="translate(-235.532 -757.529)" fill="#f0bbad"/></g></g><g transform="translate(66.987 108.329)"><rect width="24.988" height="12.409" rx="2" transform="translate(0 5.353)" fill="#e4effd"/><rect width="2.99" height="6.89" transform="translate(10.999)" fill="#04a6d6"/><rect width="5.417" height="6.499" transform="translate(3.033 8.257)" fill="#fff"/><rect width="11.614" height="1.504" transform="translate(10.168 8.257)" fill="#fff"/><rect width="11.614" height="1.504" transform="translate(10.168 10.755)" fill="#fff"/><rect width="11.614" height="1.504" transform="translate(10.168 13.252)" fill="#fff"/></g><g transform="translate(81.3 52.147)"><path d="M622.64,597.091a6.227,6.227,0,0,1-2.124-.373l.521-1.437a4.7,4.7,0,0,0,5.783-2.268l7.706-15.51a13.153,13.153,0,0,0,1.344-5.53,13.391,13.391,0,0,0-.232-2.764,13.722,13.722,0,0,0-.788-2.653,14.011,14.011,0,0,0-3.254-4.78,14.456,14.456,0,0,0-11.206-3.943,14.014,14.014,0,0,0-5.53,1.689,13.75,13.75,0,0,0-2.276,1.576,13.4,13.4,0,0,0-1.912,2.01,13.15,13.15,0,0,0-2.416,5.154l-3.7,16.916a4.7,4.7,0,0,0,3.1,5.4l-.491,1.448a6.23,6.23,0,0,1-4.1-7.161l0-.009,3.706-16.929a14.671,14.671,0,0,1,2.7-5.751,14.937,14.937,0,0,1,2.13-2.24,15.272,15.272,0,0,1,2.529-1.751,15.548,15.548,0,0,1,6.133-1.873,15.693,15.693,0,0,1,3.319.057,16.159,16.159,0,0,1,6.458,2.272,15.624,15.624,0,0,1,4.717,4.513,15.518,15.518,0,0,1,1.517,2.822,15.272,15.272,0,0,1,.875,2.949A14.931,14.931,0,0,1,637.4,572a14.668,14.668,0,0,1-1.5,6.172l0,0-7.714,15.527a6.232,6.232,0,0,1-5.542,3.384Z" transform="translate(-567.939 -527.818)" fill="#04a6d6"/><path d="M2.12,0H3.28A2.122,2.122,0,0,1,5.4,2.12v0a2.122,2.122,0,0,1-2.12,2.12H2.12A2.122,2.122,0,0,1,0,2.123v0A2.122,2.122,0,0,1,2.12,0ZM3.28,2.72a.6.6,0,0,0,.6-.6v0a.6.6,0,0,0-.6-.6H2.12a.6.6,0,0,0-.6.6v0a.6.6,0,0,0,.6.6Z" transform="translate(38.771 60.037) rotate(19.344)" fill="#04a6d6"/><path d="M2.128,0H3.292A2.13,2.13,0,0,1,5.42,2.128v0A2.13,2.13,0,0,1,3.292,4.258H2.128A2.13,2.13,0,0,1,0,2.131v0A2.13,2.13,0,0,1,2.128,0ZM3.292,2.73a.6.6,0,0,0,.6-.6v0a.6.6,0,0,0-.6-.6H2.128a.6.6,0,0,0-.6.6v0a.6.6,0,0,0,.6.6Z" transform="matrix(0.943, 0.332, -0.332, 0.943, 49.588, 64.815)" fill="#04a6d6"/><path d="M643.014,594.646l-1.528-.056a14.326,14.326,0,0,0-.1-1.818,18.953,18.953,0,0,0-.955-4.227,14.521,14.521,0,0,0-2.776-4.807,13.147,13.147,0,0,0-5.568-3.683,13.337,13.337,0,0,0-6.751-.633,14.282,14.282,0,0,0-5.178,2.034,17.662,17.662,0,0,0-4.5,4.048l-1.239-.895a19,19,0,0,1,4.927-4.447,15.8,15.8,0,0,1,5.733-2.247,14.846,14.846,0,0,1,7.517.7,14.652,14.652,0,0,1,6.228,4.137,16.071,16.071,0,0,1,3.068,5.336A19.534,19.534,0,0,1,643.014,594.646Z" transform="translate(-575.919 -542.719)" fill="#04a6d6"/><path d="M500.622,505.462a.764.764,0,0,1-.746-.6c-.01-.046-.248-1.156-.5-2.984a61.463,61.463,0,0,1-.56-7.3,44.315,44.315,0,0,1,.771-9.305,24.579,24.579,0,0,1,3.555-9A16.742,16.742,0,0,1,514.7,469.03a.764.764,0,1,1,.254,1.507,18.073,18.073,0,0,0-3.458.93,14.762,14.762,0,0,0-7.081,5.65,23.055,23.055,0,0,0-3.32,8.432,42.731,42.731,0,0,0-.746,8.97,59.632,59.632,0,0,0,.543,7.12c.244,1.781.481,2.886.483,2.9a.765.765,0,0,1-.748.926Z" transform="translate(-495.649 -467.256)" fill="#04a6d6"/><ellipse cx="6.612" cy="6.612" rx="6.612" ry="6.612" transform="translate(0.679 37.21)" fill="#fff"/><path d="M5.224-2a7.218,7.218,0,0,1,7.224,7.224,7.218,7.218,0,0,1-7.224,7.224A7.218,7.218,0,0,1-2,5.224,7.218,7.218,0,0,1,5.224-2Zm0,13.225A6,6,0,0,0,9.467.98a6,6,0,1,0-6.579,9.773A5.963,5.963,0,0,0,5.224,11.225Z" transform="translate(2 38.626)" fill="#04a6d6"/><ellipse cx="4.393" cy="4.393" rx="4.393" ry="4.393" transform="translate(2.812 39.42)" fill="#04a6d6"/><path d="M656.425,493.952a.765.765,0,0,1-.708-1.052h0a45.009,45.009,0,0,0,2.26-8.189,30.629,30.629,0,0,0,.472-7.334,15.278,15.278,0,0,0-1.967-6.879,10.749,10.749,0,0,0-1.6-2.054,10.956,10.956,0,0,0-2.2-1.692,16.185,16.185,0,0,0-6.613-1.976.764.764,0,0,1,.153-1.521c5.427.546,9.32,2.718,11.572,6.458a16.792,16.792,0,0,1,2.182,7.578,32.209,32.209,0,0,1-.5,7.716,47.689,47.689,0,0,1-1.483,6.016c-.475,1.5-.845,2.416-.861,2.454A.764.764,0,0,1,656.425,493.952Z" transform="translate(-597.412 -463.25)" fill="#04a6d6"/></g><g transform="translate(93.489)"><g transform="translate(1.561 34.787)"><path d="M565.075,406.46s-2.718,12.739,6.673,25.615c0,0-16.227,8.3-38.3.841,0,0,13-4.478,7.447-25.926Z" transform="translate(-533.45 -406.46)" fill="#f2b9a9"/></g><path d="M561.324,329.373l-.037-1.085-.159-4.839s-5.093.2-3.28-7.465c1.981-8.364-1.339-12.277-9.972-8.957-6.245,2.4-12.185,4.313-16.336.945a9.586,9.586,0,0,1-1.96-2.2c-2.323-3.525-1.3-3.84,2.446-6.154,4.693-2.892,9.868-8.819,21.494-6.365,9.287,1.963,9.764,9.767,9.764,9.767s5.57-1.247,6.82,4.585C571.691,314.923,561.324,329.373,561.324,329.373Z" transform="translate(-528.344 -292.667)" fill="#40465c"/><path d="M565.686,359.905h0c-1.293,2.109-5.111,8.132-7.013,8.847-5.729,2.164-14.9,4.053-17.957,2.476-2.091-1.076-2.207-1.143-4.662-11.791-1.37-5.949-.612-16.759.336-21.53,4.151,3.363,10.088,1.455,16.337-.945,8.633-3.32,11.953.593,9.972,8.957-1.565,6.612,2.015,7.37,3.023,7.456h0c.19-.214,2.516-2.751,4.68-.865C571.916,353.834,566.7,358.93,565.686,359.905Z" transform="translate(-533.179 -322.603)" fill="#fbc5b6"/></g><ellipse cx="1.59" cy="1.59" rx="1.59" ry="1.59" transform="translate(97.658 26.322)" fill="#40465c"/><ellipse cx="1.59" cy="1.59" rx="1.59" ry="1.59" transform="translate(110.812 26.322)" fill="#40465c"/></g></g></g></g></svg>