<svg xmlns="http://www.w3.org/2000/svg" width="24" height="24" viewBox="0 0 24 24"><g transform="translate(3870 -13903)"><g transform="translate(-3868 13905)"><path d="M0,0H19.938V19.938H0Z" fill="none"/><path d="M14.432,2.848,12.77,4.51H4.662V16.144H16.3V8.036l1.662-1.662v10.6a.831.831,0,0,1-.831.831H3.831A.831.831,0,0,1,3,16.975V3.679a.831.831,0,0,1,.831-.831Zm3.1-.748,1.176,1.177-7.638,7.638-1.173,0,0-1.178Z" transform="translate(-0.511 -0.357)" fill="#04a6d6"/></g><rect width="24" height="24" transform="translate(-3870 13903)" fill="none"/></g></svg>