<svg xmlns="http://www.w3.org/2000/svg" xmlns:xlink="http://www.w3.org/1999/xlink" width="136.026" height="81.729" viewBox="0 0 136.026 81.729"><defs><clipPath id="a"><path d="M40.314-307.786a.193.193,0,0,1-.036.011c-3.8.785-11.126-2.966-11.436-3.126a.209.209,0,0,1-.09-.278.2.2,0,0,1,.272-.091c.074.038,7.5,3.846,11.172,3.089a.2.2,0,0,1,.239.162.207.207,0,0,1-.122.232" transform="translate(-28.731 311.291)" fill="none" clip-rule="evenodd"/></clipPath><clipPath id="b"><path d="M-470-817.547h228.68V-970H-470Z" transform="translate(470 970)" fill="none"/></clipPath><clipPath id="c"><path d="M153.18-377.1a.2.2,0,0,1-.153,0,.209.209,0,0,1-.112-.27c.021-.053,2.091-5.327,1.765-9.861a.205.205,0,0,1,.187-.221.2.2,0,0,1,.217.192c.333,4.631-1.772,9.992-1.794,10.046a.2.2,0,0,1-.111.113" transform="translate(-152.901 387.45)" fill="none" clip-rule="evenodd"/></clipPath><clipPath id="e"><path d="M125.315-131.518a.2.2,0,0,1-.069.015c-6.26.212-12.986-4.295-13.054-4.34a.21.21,0,0,1-.057-.287.2.2,0,0,1,.281-.058c.066.045,6.687,4.479,12.816,4.271a.2.2,0,0,1,.21.2.206.206,0,0,1-.126.2" transform="translate(-112.101 136.222)" fill="none" clip-rule="evenodd"/></clipPath><clipPath id="g"><path d="M254.243-214.5a.2.2,0,0,1-.209-.035.21.21,0,0,1-.022-.292c.038-.045,3.755-4.547,3.5-12.615a.2.2,0,0,1,.2-.213.205.205,0,0,1,.209.2c.26,8.238-3.559,12.852-3.6,12.9a.2.2,0,0,1-.077.056" transform="translate(-253.964 227.659)" fill="none" clip-rule="evenodd"/></clipPath><clipPath id="i"><path d="M475.214-727.808l75.242-3.063a8.655,8.655,0,0,1,8.82,10.441l-2.088,9.859a8.654,8.654,0,0,1-8.467,6.862H484.129a9.049,9.049,0,0,0-7.438,3.8,7.445,7.445,0,0,0-1.148,2.47.4.4,0,0,1-.742.11,32.179,32.179,0,0,1-2.205-4.5,2.93,2.93,0,0,0-2.728-1.88,3.366,3.366,0,0,1-3.365-3.479l.411-12.262a8.655,8.655,0,0,1,8.3-8.358" transform="translate(-466.502 730.878)" fill="#78b5c7" clip-rule="evenodd"/></clipPath><clipPath id="j"><path d="M-470-817.547h228.68V-970H-470Z" transform="translate(470 970)" fill="#78b5c7"/></clipPath><clipPath id="k"><path d="M493.594-682.332c-.245-.519-.485-1.07-.705-1.638a4.79,4.79,0,0,0-4.488-3.085,1.467,1.467,0,0,1-1.063-.451,1.471,1.471,0,0,1-.416-1.078l.412-12.262a6.8,6.8,0,0,1,6.489-6.536l75.244-3.063c.1,0,.191-.006.286-.006a6.731,6.731,0,0,1,5.248,2.508,6.742,6.742,0,0,1,1.362,5.662l-2.088,9.859a6.8,6.8,0,0,1-6.621,5.366H502.662a10.926,10.926,0,0,0-8.985,4.6c-.029.04-.056.081-.083.121" transform="translate(-486.922 710.451)" fill="#fff" clip-rule="evenodd"/></clipPath><clipPath id="l"><path d="M-470-817.547h228.68V-970H-470Z" transform="translate(470 970)" fill="#fff"/></clipPath><clipPath id="m"><rect width="89.624" height="28.181" fill="#fff"/></clipPath><clipPath id="o"><path d="M486-682.819h89.624V-711H486Z" transform="translate(-486 711)" fill="#fff"/></clipPath><clipPath id="p"><path d="M1032.555-695.948s-8.052,14.562-19.59,15.616l-.615,1.735s15.9,3.1,24.043-9.992l-3.838-7.358" transform="translate(-1012.35 695.948)" fill="#04a6d6" clip-rule="evenodd"/></clipPath><clipPath id="q"><path d="M-470-817.547h228.68V-970H-470Z" transform="translate(470 970)" fill="#04a6d6"/></clipPath><clipPath id="r"><rect width="24.115" height="20.512" fill="#04a6d6"/></clipPath><clipPath id="t"><path d="M1012-677.8h24.115V-696H1012Z" transform="translate(-1012 696)" fill="#04a6d6"/></clipPath><clipPath id="u"><path d="M928.946-537.516a1.116,1.116,0,0,0-.957-1.616c-.04,0-.081,0-.123,0a6.733,6.733,0,0,1-3.243-.506.364.364,0,0,0-.515.091c-.14.227-.029.612,1.258,1.173,0,0-2.847,1.11-5.139.02-2.235-1.062.993,4.561,7.792,1.863a1.488,1.488,0,0,0,.781-.728l.147-.3" transform="translate(-919.523 539.706)" fill="none" clip-rule="evenodd"/></clipPath><clipPath id="w"><rect width="11.457" height="6.098" fill="none"/></clipPath><clipPath id="y"><path d="M914-536.38h10.348V-541H914Z" transform="translate(-914 541)" fill="none"/></clipPath><linearGradient id="z" x1="0.694" y1="0.42" x2="0.624" y2="0.409" gradientUnits="objectBoundingBox"><stop offset="0" stop-color="#ff928e"/><stop offset="0.1" stop-color="#ff9591"/><stop offset="0.2" stop-color="#ff9995"/><stop offset="0.3" stop-color="#fe9c98"/><stop offset="0.4" stop-color="#fe9f9c"/><stop offset="0.5" stop-color="#fea39f"/><stop offset="0.6" stop-color="#fea6a2"/><stop offset="0.7" stop-color="#fea9a6"/><stop offset="0.8" stop-color="#fdaca9"/><stop offset="0.9" stop-color="#fdb0ad"/><stop offset="1" stop-color="#fdb3b0"/></linearGradient><clipPath id="aa"><path d="M1215.9-695.088s-5.583-15.117.294-19.763c0,0,8.808-1.421,15.213,1.008l-.731,18.755a21.325,21.325,0,0,1-14.776,0" transform="translate(-1213.5 715.264)" fill="#04a6d6" clip-rule="evenodd"/></clipPath><clipPath id="ac"><rect width="21.159" height="24.208" fill="#04a6d6"/></clipPath><clipPath id="ae"><path d="M1208-698.455h18.479V-721H1208Z" transform="translate(-1208 721)" fill="#04a6d6"/></clipPath><clipPath id="af"><path d="M1261.5-806.933a24.617,24.617,0,0,1,1.436,4.964,1.467,1.467,0,0,0,1.219,1.252c1.367.227,3.635.354,5.014-.9a1.033,1.033,0,0,0,.271-1.108c-.568-1.59-3.522-8.212-5.132-9.227l-2.809,5.023" transform="translate(-1261.5 811.956)" fill="none" clip-rule="evenodd"/></clipPath><clipPath id="ah"><rect width="8.131" height="11.642" fill="none"/></clipPath><clipPath id="aj"><path d="M1261-800.358h8.131V-812H1261Z" transform="translate(-1261 812)" fill="none"/></clipPath><linearGradient id="ak" x1="0.891" y1="0.118" x2="0.871" y2="0.335" xlink:href="#z"/><clipPath id="al"><path d="M1271.615-536.4c0,.012,0,.024,0,.036.024,3.459-4.653,3.789-4.653,3.789s-1.338-2.224-3.055-2.3-4.1,2.723-4.1,2.723l3.809.61s7.263,4.357,12.241-.819c-.88-3.223-2.978-3.928-4.245-4.043" transform="translate(-1259.81 536.395)" fill="none" clip-rule="evenodd"/></clipPath><clipPath id="an"><rect width="16.169" height="9.332" fill="none"/></clipPath><clipPath id="ap"><path d="M1259-529.886h16.169V-537H1259Z" transform="translate(-1259 537)" fill="none"/></clipPath><linearGradient id="aq" x1="0.989" y1="0.199" x2="0.953" y2="0.319" xlink:href="#z"/><clipPath id="ar"><path d="M1367.279-699.884c-4.719,1.673-4.037,5.38-4.037,5.38s2.178,6.26,2.217,9.726c1.267.116,3.366.82,4.245,4.044.118-.123.236-.249.351-.383,5.949-6.894-2.777-18.766-2.777-18.766" transform="translate(-1363.208 699.884)" fill="#04a6d6" clip-rule="evenodd"/></clipPath><clipPath id="at"><rect width="13.49" height="19.218" fill="#04a6d6"/></clipPath><clipPath id="av"><path d="M1358-680.782h9.886V-700H1358Z" transform="translate(-1358 700)" fill="#04a6d6"/></clipPath><clipPath id="aw"><path d="M1205.65-850.966c0,.138,3.091,8.749,3.091,8.749l4.878-1.869-1.717-8.6s-6.252-.6-6.252,1.716" transform="translate(-1205.65 852.752)" fill="none" clip-rule="evenodd"/></clipPath><clipPath id="ay"><rect width="8.038" height="11.18" fill="none"/></clipPath><clipPath id="ba"><path d="M1205-846.912h8.038V-858H1205Z" transform="translate(-1205 858)" fill="none"/></clipPath><linearGradient id="bb" x1="0.834" y1="0.059" x2="0.911" y2="0.229" xlink:href="#z"/><clipPath id="bc"><path d="M1186.87-879.82l1.258,4.454a.649.649,0,0,1,.024.174c0,.363-.09,1.614-1.363,1.443a5.816,5.816,0,0,0-2.884.039.646.646,0,0,0-.333.8,27.966,27.966,0,0,0,1.758,3.966.645.645,0,0,0,.829.265,20.85,20.85,0,0,0,4.183-2.46.648.648,0,0,0,.229-.621c-.214-1.139-.851-4.605-.879-5.6-.027-.932,1.019-1.644,1.48-1.911a.635.635,0,0,0,.3-.4,1.675,1.675,0,0,0-1.464-2.257.647.647,0,0,1-.525-.77,1.68,1.68,0,0,0-1.263-2.162,2.37,2.37,0,0,0-2.7,1.078.647.647,0,0,1-.8.214.512.512,0,0,0-.574.1.637.637,0,0,1-.932-.142,1.931,1.931,0,0,0-2.38-.786c-2.2.713-2.1,3.254-1.291,4.636s3.155.472,4.264-.443a2.765,2.765,0,0,1,2.7-.04.638.638,0,0,1,.367.418" transform="translate(-1179.012 884.959)" fill="#1f292c" clip-rule="evenodd"/></clipPath><clipPath id="bd"><path d="M-470-817.547h228.68V-970H-470Z" transform="translate(470 970)" fill="#1f292c"/></clipPath><clipPath id="be"><rect width="13.213" height="16.816" fill="#1f292c"/></clipPath><clipPath id="bg"><path d="M1174-868.554h13.213V-885H1174Z" transform="translate(-1174 885)" fill="#1f292c"/></clipPath><clipPath id="bh"><path d="M1291.477-820.843s-1.058-2.5-.2-3.274,2.066-.509,2.026,1.421c-.049,2.4-1.831,1.853-1.831,1.853" transform="translate(-1290.943 824.522)" fill="none" clip-rule="evenodd"/></clipPath><clipPath id="bj"><rect width="2.957" height="4.712" fill="none"/></clipPath><clipPath id="bl"><path d="M1285-824.38h2.957V-829H1285Z" transform="translate(-1285 829)" fill="none"/></clipPath><linearGradient id="bm" x1="0.943" y1="0.192" x2="0.883" y2="0.089" xlink:href="#z"/><clipPath id="bn"><path d="M577.888-664.954l43.89-2.976a.61.61,0,0,1,.651.608v1.507a.61.61,0,0,1-.589.609l-43.89,1.469a.61.61,0,0,1-.63-.61.61.61,0,0,1,.568-.608" transform="translate(-577.32 667.932)" fill="#78b5c7" clip-rule="evenodd"/></clipPath><clipPath id="bp"><path d="M577.32-607.909v.552a1.232,1.232,0,0,0,1.283,1.231l33.924-1.416a1.232,1.232,0,0,0,1.181-1.231A1.232,1.232,0,0,0,612.445-610l-33.925.864a1.232,1.232,0,0,0-1.2,1.231" transform="translate(-577.32 610.005)" fill="#78b5c7" clip-rule="evenodd"/></clipPath><clipPath id="br"><path d="M577.32-545.093h0a1.165,1.165,0,0,0,1.237,1.163l20.74-1.288a1.165,1.165,0,0,0,1.008-1.6l-.12-.3a1.164,1.164,0,0,0-1.136-.726l-20.042.974a1.775,1.775,0,0,0-1.688,1.772" transform="translate(-577.32 547.841)" fill="#78b5c7" clip-rule="evenodd"/></clipPath><clipPath id="bt"><path d="M84.71-358.163,9.467-361.226a8.655,8.655,0,0,0-8.82,10.441l2.088,9.859a8.655,8.655,0,0,0,8.468,6.862H75.795a9.047,9.047,0,0,1,7.437,3.8,7.693,7.693,0,0,1,.984,1.912.672.672,0,0,0,1.222.118,31.446,31.446,0,0,0,1.89-3.946,2.929,2.929,0,0,1,2.728-1.88,3.366,3.366,0,0,0,3.364-3.479l-.41-12.262a8.657,8.657,0,0,0-8.3-8.358" transform="translate(-0.456 361.233)" fill="#78b5c7" clip-rule="evenodd"/></clipPath><clipPath id="bv"><path d="M103.339-312.808a10.926,10.926,0,0,0-8.985-4.6H29.762a6.8,6.8,0,0,1-6.621-5.366l-2.088-9.859a6.737,6.737,0,0,1,1.362-5.662,6.73,6.73,0,0,1,5.248-2.509c.095,0,.191,0,.287.006l75.243,3.063a6.8,6.8,0,0,1,6.489,6.536l.411,12.262a1.466,1.466,0,0,1-.415,1.078,1.468,1.468,0,0,1-1.063.451,4.789,4.789,0,0,0-4.488,3.085c-.221.57-.463,1.123-.706,1.638l-.082-.12" transform="translate(-20.904 340.806)" fill="#fff" clip-rule="evenodd"/></clipPath><clipPath id="bz"><path d="M17-312.819h89.624V-341H17Z" transform="translate(-17 341)" fill="#fff"/></clipPath><clipPath id="ca"><path d="M245.683-400.152a.283.283,0,0,0-.525-.01,4.664,4.664,0,0,1-2.52,2.777c-.068.02-.133.041-.195.063a.655.655,0,0,1,.154-.577c.473-.557-.139-1.476-.139-1.476a1.862,1.862,0,0,1-.752,1.114,1.791,1.791,0,0,0-.632,1.952c.354,2.772.942,6.453-3.416,8.541s-9.095-6.117-9.095-6.117l1.7,9.288s3.946,3.757,9.574-.121,3.1-10.868,3.1-10.868,4.055-1.072,2.752-4.566" transform="translate(-228.563 400.336)" fill="#fdafac" clip-rule="evenodd"/></clipPath><clipPath id="cb"><path d="M-470-817.547h228.68V-970H-470Z" transform="translate(470 970)" fill="#fdafac"/></clipPath><clipPath id="cc"><rect width="18.479" height="19.68" fill="#fdafac"/></clipPath><clipPath id="ce"><path d="M228-383.983h17.925V-402H228Z" transform="translate(-228 402)" fill="#fdafac"/></clipPath><clipPath id="cf"><path d="M56.116-518.595s1.827-5.093-4.35-4.46c0,0-2.854-.842-3.347,1.889,0,0-2.034,1-.958,3.554,0,0-5.31-2.858-8.357,1.729s-1.15,7.559,1.105,8.555a2.352,2.352,0,0,0-1.39,2.98c.628,2.265,4.988,4.355,8.006,2.075,0,0,7.522,1.973,8.049-3.45,0,0,3.847-1.85.671-6.785s.571-6.086.571-6.086" transform="translate(-37.52 523.178)" fill="#1f292c" clip-rule="evenodd"/></clipPath><clipPath id="ch"><rect width="22.729" height="23.931" fill="#1f292c"/></clipPath><clipPath id="cj"><path d="M32-506.086H52.327V-529H32Z" transform="translate(-32 529)" fill="#1f292c"/></clipPath><clipPath id="ck"><path d="M126.065-348.266a8.3,8.3,0,0,0-8.316,1.04,2.085,2.085,0,0,0-.855,1.986c.482,3.416,1.622,13.472-.984,17.433a8.223,8.223,0,0,0,1.1,1.171,5.084,5.084,0,0,0,6.446.572s2.771-7.578,5.547-10.709c1.916-2.161-1.465-9.205-2.33-10.913a1.254,1.254,0,0,0-.611-.582" transform="translate(-115.909 348.937)" fill="#e48538" clip-rule="evenodd"/></clipPath><clipPath id="cl"><path d="M-470-817.547h228.68V-970H-470Z" transform="translate(470 970)" fill="#e48538"/></clipPath><clipPath id="cm"><rect width="15.153" height="26.702" fill="#e48538"/></clipPath><clipPath id="cn"><path d="M126.065-348.266a8.3,8.3,0,0,0-8.316,1.04,2.085,2.085,0,0,0-.855,1.986c.482,3.416,1.622,13.472-.984,17.433,0,0,3.151,4.492,7.55,1.744,0,0,2.771-7.578,5.547-10.709,1.916-2.161-1.465-9.205-2.33-10.913a1.254,1.254,0,0,0-.611-.582" transform="translate(-115.909 348.937)" fill="#e48538" clip-rule="evenodd"/></clipPath><clipPath id="co"><path d="M115-329.238h14.229V-354H115Z" transform="translate(-115 354)" fill="#e48538"/></clipPath><clipPath id="cp"><path d="M170.891-417.23s-2.418,4.821-2.832,7.03a3.845,3.845,0,0,0,3.907-.135,56.5,56.5,0,0,1,1.224-5.882l-2.3-1.013" transform="translate(-168.059 417.23)" fill="none" clip-rule="evenodd"/></clipPath><clipPath id="cr"><rect width="5.174" height="8.316" fill="none"/></clipPath><clipPath id="ct"><path d="M168-409.962h5.174V-418H168Z" transform="translate(-168 418)" fill="none"/></clipPath><linearGradient id="cu" x1="0.147" y1="0.518" x2="0.095" y2="0.781" xlink:href="#z"/><clipPath id="cv"><path d="M184.751-490.521s3.845,7.116.817,8.661-5.765-3.512-5.765-3.512-.633-3.71.651-4.78,4.3-.37,4.3-.37" transform="translate(-179.647 490.746)" fill="none" clip-rule="evenodd"/></clipPath><clipPath id="cx"><rect width="9.517" height="10.995" fill="none"/></clipPath><clipPath id="cz"><path d="M174-485.836h8.131V-496H174Z" transform="translate(-174 496)" fill="none"/></clipPath><linearGradient id="da" x1="-1.052" y1="4.033" x2="-1.008" y2="3.902" xlink:href="#z"/><clipPath id="db"><path d="M172.295-510.456s2.079.777,2.258,1.785-3.274,1.487-4.216,1.413l-1.246,3.819s-1.766-3.962-.616-5.977,3.82-1.04,3.82-1.04" transform="translate(-168.086 510.692)" fill="#1f292c" clip-rule="evenodd"/></clipPath><clipPath id="dd"><rect width="7.576" height="8.038" fill="#1f292c"/></clipPath><clipPath id="df"><path d="M163-508.239h7.207V-516H163Z" transform="translate(-163 516)" fill="#1f292c"/></clipPath><clipPath id="dg"><path d="M165.708-450.643s-1.552-2.331-2.446-1.051,1.333,2.606,2.233,2.035l.213-.984" transform="translate(-163.054 452.078)" fill="none" clip-rule="evenodd"/></clipPath><clipPath id="di"><rect width="3.419" height="3.973" fill="none"/></clipPath><clipPath id="dk"><path d="M158-454.4h3.141V-458H158Z" transform="translate(-158 458)" fill="none"/></clipPath><linearGradient id="dl" x1="-1.072" y1="4.014" x2="-1.028" y2="3.884" xlink:href="#z"/><clipPath id="dm"><path d="M42.763-326.51s-6.294,4.019-8.521,10.313,7.427,8.206,7.427,8.206a3.037,3.037,0,0,1,3.012-.586c1.5.724.445-2.562-1.392-2.785s-1.17,1.337-3.62-.167c-2.387-1.465-3.506-5.208,3.628-9.771a2.95,2.95,0,0,0,1-1.054c1.652-3,.917-5.2-1.532-4.155" transform="translate(-33.908 326.772)" fill="none" clip-rule="evenodd"/></clipPath><clipPath id="do"><rect width="14.229" height="19.773" fill="none"/></clipPath><clipPath id="dq"><path d="M28-312.6H40.566V-332H28Z" transform="translate(-28 332)" fill="none"/></clipPath><linearGradient id="dr" x1="0.026" y1="0.871" x2="0.291" y2="0.368" xlink:href="#z"/><clipPath id="ds"><path d="M471.926-285.875l37.908,1.351a.982.982,0,0,1,.947.981v.5a.982.982,0,0,1-1.01.982l-37.908-1.077a.982.982,0,0,1-.954-.982v-.77a.982.982,0,0,1,1.017-.981" transform="translate(-470.909 285.876)" fill="#78b5c7" clip-rule="evenodd"/></clipPath><clipPath id="du"><path d="M405.259-219.179v.948a.982.982,0,0,0,.982.982h43.973a.982.982,0,0,0,.982-.982v-.239a.982.982,0,0,0-.966-.982l-43.973-.709a.982.982,0,0,0-1,.982" transform="translate(-405.259 220.161)" fill="#78b5c7" clip-rule="evenodd"/></clipPath><clipPath id="dw"><path d="M414.389-159.2a.982.982,0,0,0-.973,1.111l.177,1.334a.982.982,0,0,0,.974.853h42.722a.982.982,0,0,0,.944-1.252l-.382-1.334a.981.981,0,0,0-.944-.712H414.389" transform="translate(-413.407 159.201)" fill="#78b5c7" clip-rule="evenodd"/></clipPath></defs><g transform="translate(-0.456 884.959)"><g transform="translate(3.068 -831.955)" clip-path="url(#a)"><g transform="translate(-46.081 -60.862)" clip-path="url(#b)"><path d="M23.731-316.291H36.364v4.549H23.731Z" transform="translate(21.887 376.691)" fill="#91b3f9"/></g></g><g transform="translate(14.541 -838.991)" clip-path="url(#c)"><g transform="translate(-57.553 -53.825)" clip-path="url(#b)"><path d="M147.9-392.45h3.144v11.291H147.9Z" transform="translate(-90.809 445.813)" fill="#91b3f9"/></g></g><g transform="translate(10.771 -815.779)" clip-path="url(#e)"><g transform="translate(-53.784 -77.038)" clip-path="url(#b)"><path d="M107.1-141.222h14.264v5.65H107.1Z" transform="translate(-53.779 217.798)" fill="#91b3f9"/></g></g><g transform="translate(23.879 -824.227)" clip-path="url(#g)"><g transform="translate(-66.891 -68.589)" clip-path="url(#b)"><path d="M248.964-232.659h4.891v14.094h-4.891Z" transform="translate(-182.534 300.786)" fill="#91b3f9"/></g></g><g transform="translate(43.517 -870.723)" clip-path="url(#i)"><g transform="translate(-86.529 -22.094)" clip-path="url(#j)"><path d="M461.5-735.878h93.89v34.67H461.5Z" transform="translate(-375.435 757.51)" fill="#78b5c7"/></g></g><g transform="translate(45.403 -868.835)" clip-path="url(#k)"><g transform="translate(-88.416 -23.981)" clip-path="url(#l)"><g transform="translate(88.33 23.931)" style="isolation:isolate"><g transform="translate(0)" clip-path="url(#m)"><g transform="translate(0.085 0.051)" clip-path="url(#k)"><g transform="translate(-0.085 -0.051)" clip-path="url(#o)"><g transform="translate(-44.904 -16.077)"><path d="M-486.93-174.549h136.1v81.77h-136.1Z" transform="translate(486.93 174.549)" fill="#fff"/></g></g></g></g></g></g></g><g transform="translate(93.951 -867.495)" clip-path="url(#p)"><g transform="translate(-136.963 -25.321)" clip-path="url(#q)"><g transform="translate(136.931 25.316)" style="isolation:isolate"><g clip-path="url(#r)"><g transform="translate(0.032 0.005)" clip-path="url(#p)"><g transform="translate(-0.032 -0.005)" clip-path="url(#t)"><g transform="translate(-93.505 -17.463)"><path d="M-1012.35-189.052h136.1v81.77h-136.1Z" transform="translate(1012.35 189.052)" fill="#04a6d6"/></g></g></g></g></g></g></g><g transform="translate(85.374 -853.059)" clip-path="url(#u)"><g transform="translate(-128.386 -39.757)" clip-path="url(#b)"><g transform="translate(126.767 39.638)" style="isolation:isolate"><g transform="translate(0)" clip-path="url(#w)"><g transform="translate(1.619 0.12)" clip-path="url(#u)"><g transform="translate(-0.51 -0.12)" clip-path="url(#y)"><g transform="translate(-84.45 -31.784)"><path d="M-919.522-345.294h136.1v81.77h-136.1Z" transform="translate(919.522 345.294)" fill="url(#z)"/></g></g></g></g></g></g></g><g transform="translate(112.536 -869.28)" clip-path="url(#aa)"><g transform="translate(-155.548 -23.537)" clip-path="url(#q)"><g transform="translate(152.361 22.452)" style="isolation:isolate"><g clip-path="url(#ac)"><g transform="translate(3.188 1.084)" clip-path="url(#aa)"><g transform="translate(-0.508 -0.53)" clip-path="url(#ae)"><g transform="translate(-111.614 -15.153)"><path d="M-1213.5-169.737h136.1v81.77h-136.1Z" transform="translate(1213.5 169.737)" fill="#04a6d6"/></g></g></g></g></g></g></g><g transform="translate(116.971 -878.214)" clip-path="url(#af)"><g transform="translate(-159.983 -14.603)" clip-path="url(#b)"><g transform="translate(159.937 14.599)" style="isolation:isolate"><g transform="translate(0)" clip-path="url(#ah)"><g transform="translate(0.046 0.004)" clip-path="url(#af)"><g transform="translate(-0.046 -0.004)" clip-path="url(#aj)"><g transform="translate(-116.511 -6.745)"><path d="M-1261.5-73.044h136.1V8.726h-136.1Z" transform="translate(1261.5 73.044)" fill="url(#ak)"/></g></g></g></g></g></g></g><g transform="translate(116.815 -852.753)" clip-path="url(#al)"><g transform="translate(-159.827 -40.063)" clip-path="url(#b)"><g transform="translate(159.752 40.007)" style="isolation:isolate"><g transform="translate(0)" clip-path="url(#an)"><g transform="translate(0.075 0.056)" clip-path="url(#al)"><g transform="translate(-0.075 -0.056)" clip-path="url(#ap)"><g transform="translate(-116.326 -32.154)"><path d="M-1259.81-348.605h136.1v81.77h-136.1Z" transform="translate(1259.81 348.605)" fill="url(#aq)"/></g></g></g></g></g></g></g><g transform="translate(126.368 -867.859)" clip-path="url(#ar)"><g transform="translate(-169.381 -24.958)" clip-path="url(#q)"><g transform="translate(168.715 24.947)" style="isolation:isolate"><g clip-path="url(#at)"><g transform="translate(0.666 0.011)" clip-path="url(#ar)"><g transform="translate(-0.481 -0.011)" clip-path="url(#av)"><g transform="translate(-125.473 -17.093)"><path d="M-1363.208-185.116h136.1v81.77h-136.1Z" transform="translate(1363.208 185.116)" fill="#04a6d6"/></g></g></g></g></g></g></g><g transform="translate(111.811 -881.983)" clip-path="url(#aw)"><g transform="translate(-154.823 -10.833)" clip-path="url(#b)"><g transform="translate(154.763 10.256)" style="isolation:isolate"><g transform="translate(0)" clip-path="url(#ay)"><g transform="translate(0.06 0.577)" clip-path="url(#aw)"><g transform="translate(-0.06 -0.485)" clip-path="url(#ba)"><g transform="translate(-111.337 -2.495)"><path d="M-1205.65-32.248h136.1v81.77h-136.1Z" transform="translate(1205.65 32.248)" fill="url(#bb)"/></g></g></g></g></g></g></g><g transform="translate(109.35 -884.959)" clip-path="url(#bc)"><g transform="translate(-152.362 -7.857)" clip-path="url(#bd)"><g transform="translate(151.899 7.484)" style="isolation:isolate"><g transform="translate(0)" clip-path="url(#be)"><g transform="translate(0.463 0.373)" clip-path="url(#bc)"><g transform="translate(-0.463 -0.004)" clip-path="url(#bg)"><g transform="translate(-108.473 0)"><path d="M-1179.012-.041h136.1v81.77h-136.1Z" transform="translate(1179.012 0.041)" fill="#1f292c"/></g></g></g></g></g></g></g><g transform="translate(119.691 -879.375)" clip-path="url(#bh)"><g transform="translate(-162.704 -13.442)" clip-path="url(#b)"><g transform="translate(162.155 13.028)" style="isolation:isolate"><g clip-path="url(#bj)"><g transform="translate(0.549 0.414)" clip-path="url(#bh)"><g transform="translate(-0.549 -0.414)" clip-path="url(#bl)"><g transform="translate(-118.729 -5.174)"><path d="M-1290.943-60.478h136.1v81.77h-136.1Z" transform="translate(1290.943 60.478)" fill="url(#bm)"/></g></g></g></g></g></g></g><g transform="translate(53.756 -864.907)" clip-path="url(#bn)"><g transform="translate(-96.768 -27.91)" clip-path="url(#j)"><path d="M572.32-672.931h46.033v5.119H572.32Z" transform="translate(-476.014 700.379)" fill="#78b5c7"/></g></g><g transform="translate(53.756 -859.554)" clip-path="url(#bp)"><g transform="translate(-96.768 -33.262)" clip-path="url(#j)"><path d="M572.32-615h37.312v4.8H572.32Z" transform="translate(-476.014 647.805)" fill="#78b5c7"/></g></g><g transform="translate(53.756 -853.811)" clip-path="url(#br)"><g transform="translate(-96.768 -39.006)" clip-path="url(#j)"><path d="M572.32-552.841h24V-548h-24Z" transform="translate(-476.014 591.385)" fill="#78b5c7"/></g></g><g transform="translate(0.456 -836.569)" clip-path="url(#bt)"><g transform="translate(-43.468 -56.247)" clip-path="url(#j)"><path d="M-4.544-366.233H89.345v34.262H-4.544Z" transform="translate(47.55 422.019)" fill="#78b5c7"/></g></g><g transform="translate(2.345 -834.682)" clip-path="url(#bv)"><g transform="translate(-45.357 -58.135)" clip-path="url(#l)"><g transform="translate(44.997 58.117)" style="isolation:isolate"><g transform="translate(0)" clip-path="url(#m)"><g transform="translate(0.361 0.018)" clip-path="url(#bv)"><g transform="translate(-0.361 -0.018)" clip-path="url(#bz)"><g transform="translate(-1.571 -50.263)"><path d="M-20.9-544.194h136.1v81.77H-20.9Z" transform="translate(20.904 544.194)" fill="#fff"/></g></g></g></g></g></g></g><g transform="translate(21.532 -840.182)" clip-path="url(#ca)"><g transform="translate(-64.544 -52.635)" clip-path="url(#cb)"><g transform="translate(64.492 52.481)" style="isolation:isolate"><g transform="translate(0)" clip-path="url(#cc)"><g transform="translate(0.052 0.154)" clip-path="url(#ca)"><g transform="translate(-0.052 -0.154)" clip-path="url(#ce)"><g transform="translate(-21.066 -44.627)"><path d="M-228.563-484.664h136.1v81.77h-136.1Z" transform="translate(228.563 484.664)" fill="#fdafac"/></g></g></g></g></g></g></g><g transform="translate(3.88 -851.532)" clip-path="url(#cf)"><g transform="translate(-46.893 -41.285)" clip-path="url(#bd)"><g transform="translate(45.366 40.562)" style="isolation:isolate"><g transform="translate(0)" clip-path="url(#ch)"><g transform="translate(1.526 0.723)" clip-path="url(#cf)"><g transform="translate(-0.51 -0.538)" clip-path="url(#cj)"><g transform="translate(-2.957 -32.893)"><path d="M-37.52-361.822h136.1v81.77H-37.52Z" transform="translate(37.52 361.822)" fill="#1f292c"/></g></g></g></g></g></g></g><g transform="translate(11.123 -835.433)" clip-path="url(#ck)"><g transform="translate(-54.136 -57.384)" clip-path="url(#cl)"><g transform="translate(54.052 56.361)" style="isolation:isolate"><g transform="translate(0)" clip-path="url(#cm)"><g transform="translate(0.084 1.022)" clip-path="url(#cn)"><g transform="translate(-0.084 -0.468)" clip-path="url(#co)"><g transform="translate(-10.626 -49.062)"><path d="M-115.909-536.063H20.19v81.77h-136.1Z" transform="translate(115.909 536.063)" fill="#e48538"/></g></g></g></g></g></g></g><g transform="translate(15.942 -841.743)" clip-path="url(#cp)"><g transform="translate(-58.954 -51.074)" clip-path="url(#b)"><g transform="translate(58.949 51.002)" style="isolation:isolate"><g transform="translate(0)" clip-path="url(#cr)"><g transform="translate(0.005 0.071)" clip-path="url(#cp)"><g transform="translate(-0.005 -0.071)" clip-path="url(#ct)"><g transform="translate(-15.522 -43.149)"><path d="M-168.059-467.77h136.1V-386h-136.1Z" transform="translate(168.059 467.77)" fill="url(#cu)"/></g></g></g></g></g></g></g><g transform="translate(17.012 -848.536)" clip-path="url(#cv)"><g transform="translate(-60.025 -44.281)" clip-path="url(#b)"><g transform="translate(59.503 43.796)" style="isolation:isolate"><g transform="translate(0)" clip-path="url(#cx)"><g transform="translate(0.522 0.485)" clip-path="url(#cv)"><g transform="translate(-0.522 -0.485)" clip-path="url(#cz)"><g transform="translate(-16.077 -35.942)"><path d="M-179.647-394.254h136.1v81.77h-136.1Z" transform="translate(179.647 394.254)" fill="url(#da)"/></g></g></g></g></g></g></g><g transform="translate(15.944 -850.378)" clip-path="url(#db)"><g transform="translate(-58.956 -42.438)" clip-path="url(#bd)"><g transform="translate(58.117 41.671)" style="isolation:isolate"><g transform="translate(0)" clip-path="url(#dd)"><g transform="translate(0.84 0.768)" clip-path="url(#db)"><g transform="translate(-0.47 -0.49)" clip-path="url(#df)"><g transform="translate(-15.061 -34.094)"><path d="M-168.086-374.308h136.1v81.77h-136.1Z" transform="translate(168.086 374.308)" fill="#1f292c"/></g></g></g></g></g></g></g><g transform="translate(15.479 -844.963)" clip-path="url(#dg)"><g transform="translate(-58.492 -47.854)" clip-path="url(#b)"><g transform="translate(57.747 46.937)" style="isolation:isolate"><g transform="translate(0)" clip-path="url(#di)"><g transform="translate(0.744 0.917)" clip-path="url(#dg)"><g transform="translate(-0.467 -0.547)" clip-path="url(#dk)"><g transform="translate(-14.599 -39.453)"><path d="M-163.054-432.922h136.1v81.77h-136.1Z" transform="translate(163.054 432.922)" fill="url(#dl)"/></g></g></g></g></g></g></g><g transform="translate(3.547 -833.385)" clip-path="url(#dm)"><g transform="translate(-46.559 -59.432)" clip-path="url(#b)"><g transform="translate(44.627 58.579)" style="isolation:isolate"><g transform="translate(0 0)" clip-path="url(#do)"><g transform="translate(1.932 0.853)" clip-path="url(#dm)"><g transform="translate(-0.546 -0.483)" clip-path="url(#dq)"><g transform="translate(-2.587 -51.095)"><path d="M-33.908-558.228h136.1v81.77h-136.1Z" transform="translate(33.908 558.228)" fill="url(#dr)"/></g></g></g></g></g></g></g><g transform="translate(43.924 -829.606)" clip-path="url(#ds)"><g transform="translate(-86.936 -63.21)" clip-path="url(#j)"><path d="M465.909-290.876h40.8v4.735h-40.8Z" transform="translate(-379.435 353.624)" fill="#78b5c7"/></g></g><g transform="translate(37.858 -823.535)" clip-path="url(#du)"><g transform="translate(-80.87 -69.282)" clip-path="url(#j)"><path d="M400.259-225.161H447.12v3.836H400.259Z" transform="translate(-319.851 293.981)" fill="#78b5c7"/></g></g><g transform="translate(38.611 -817.902)" clip-path="url(#dw)"><g transform="translate(-81.623 -74.914)" clip-path="url(#j)"><path d="M408.407-164.2H454.2v4.222H408.407Z" transform="translate(-327.246 238.653)" fill="#78b5c7"/></g></g></g></svg>