<svg xmlns="http://www.w3.org/2000/svg" width="36" height="36" viewBox="0 0 36 36"><g transform="translate(7298 -13653)"><g transform="translate(-7297.046 13647.995)"><path d="M9.578,33.544a1.562,1.562,0,0,0,1.071-.424l4.677-4.366H28.52a4.713,4.713,0,0,0,3.347-1.4,4.823,4.823,0,0,0,1.388-3.385V12.789A4.823,4.823,0,0,0,31.867,9.4,4.714,4.714,0,0,0,28.52,8H12.735A4.714,4.714,0,0,0,9.388,9.4,4.822,4.822,0,0,0,8,12.789V31.947a1.606,1.606,0,0,0,.462,1.129A1.57,1.57,0,0,0,9.578,33.544Z" transform="translate(1 4.461)" fill="#d3edf5"/><path d="M31.677,33.544a1.562,1.562,0,0,1-1.071-.424L25.93,28.754H12.735a4.713,4.713,0,0,1-3.347-1.4A4.823,4.823,0,0,1,8,23.965V12.789A4.823,4.823,0,0,1,9.388,9.4,4.714,4.714,0,0,1,12.735,8H28.52a4.714,4.714,0,0,1,3.347,1.4,4.822,4.822,0,0,1,1.388,3.385V31.947a1.606,1.606,0,0,1-.462,1.129A1.57,1.57,0,0,1,31.677,33.544Z" transform="translate(-7.954 0.005)" fill="#04a6d6"/><g transform="translate(3.5 1)"><path d="M11,1H0A1,1,0,0,1-1,0,1,1,0,0,1,0-1H11a1,1,0,0,1,1,1A1,1,0,0,1,11,1Z" transform="translate(3.546 14.505)" fill="#fff"/><path d="M6,1H0A1,1,0,0,1-1,0,1,1,0,0,1,0-1H6A1,1,0,0,1,7,0,1,1,0,0,1,6,1Z" transform="translate(3.546 19.505)" fill="#fff"/></g></g><rect width="36" height="36" transform="translate(-7298 13653)" fill="none"/></g></svg>