<svg xmlns="http://www.w3.org/2000/svg" xmlns:xlink="http://www.w3.org/1999/xlink" width="99.284" height="20.718" viewBox="0 0 99.284 20.718"><defs><clipPath id="a"><path d="M14.79-166.789v3.315h-.021v6.077H10.758v-6.077H4.313v6.077H.3v-15.142H4.313v5.75h6.445v-5.75h4.011v5.75h.021" transform="translate(-0.302 172.539)" fill="#fff" clip-rule="evenodd"/></clipPath><clipPath id="b"><path d="M-927-209.756h348.833V-285H-927Z" transform="translate(927 285)" fill="#fff"/></clipPath><clipPath id="c"><path d="M122.2-143.252q-1.393,0-1.657,1.821h3.294Q123.57-143.252,122.2-143.252Zm5.606,2.722a8.878,8.878,0,0,1-.143,1.555h-7.1a1.5,1.5,0,0,0,.706,1.084,4.113,4.113,0,0,0,1.934.327,14.691,14.691,0,0,0,3.826-.573v2.844a13.01,13.01,0,0,1-4.746.757,5.88,5.88,0,0,1-4.2-1.443,5.521,5.521,0,0,1-1.535-4.226,6.037,6.037,0,0,1,1.544-4.317,5.354,5.354,0,0,1,4.083-1.637,5.521,5.521,0,0,1,4.083,1.545,5.522,5.522,0,0,1,1.544,4.082Z" transform="translate(-116.55 146.158)" fill="#fff" clip-rule="evenodd"/></clipPath><clipPath id="e"><path d="M209.7-138.239q0,.962,1.575.962a3.381,3.381,0,0,0,1.166-.225v-1.535a3.253,3.253,0,0,0-1.166-.245Q209.7-139.283,209.7-138.239Zm6.629-3.7v7.325a7.3,7.3,0,0,1-3.233-.716,7.418,7.418,0,0,1-3.438.8,4.208,4.208,0,0,1-2.936-.941,3.442,3.442,0,0,1-1.033-2.681,3.193,3.193,0,0,1,1.187-2.67,5.4,5.4,0,0,1,3.4-.931,6.1,6.1,0,0,1,2.168.409v-.266a1.322,1.322,0,0,0-.522-1.115,2.36,2.36,0,0,0-1.463-.4,16.317,16.317,0,0,0-3.888.491v-2.824a13.861,13.861,0,0,1,4.687-.7,5.675,5.675,0,0,1,3.734,1.115,3.813,3.813,0,0,1,1.34,3.1Z" transform="translate(-205.69 146.158)" fill="#fff" clip-rule="evenodd"/></clipPath><clipPath id="g"><path d="M297.59-163.994v-15.1l3.888-1.125v16.227H297.59" transform="translate(-297.59 180.221)" fill="#fff" clip-rule="evenodd"/></clipPath><clipPath id="i"><path d="M347.964-137.564a2.482,2.482,0,0,0,1.9-.767,2.836,2.836,0,0,0,.716-2.016,3.058,3.058,0,0,0-.634-2.026,2.152,2.152,0,0,0-1.741-.757,4.026,4.026,0,0,0-1.8.471v4.665A3.534,3.534,0,0,0,347.964-137.564Zm1.248-8.594a5.091,5.091,0,0,1,3.9,1.586,5.9,5.9,0,0,1,1.484,4.205,5.814,5.814,0,0,1-1.556,4.226,5.46,5.46,0,0,1-4.112,1.606,5.979,5.979,0,0,1-2.517-.573v4.87H342.52v-15.838a6.842,6.842,0,0,1,3.315.757,7,7,0,0,1,3.377-.839Z" transform="translate(-342.52 146.158)" fill="#fff" clip-rule="evenodd"/></clipPath><clipPath id="k"><path d="M448.966-175.412q4.112,0,4.112,4.522v6.9h-3.886v-6.589a1.6,1.6,0,0,0-1.823-1.8,3.453,3.453,0,0,0-1.821.552v7.837H441.66v-15.1l3.888-1.125v5.648a8.111,8.111,0,0,1,3.418-.839" transform="translate(-441.66 180.221)" fill="#fff" clip-rule="evenodd"/></clipPath><clipPath id="m"><path d="M540.984-132.629a3.87,3.87,0,0,1-.942-.522,5.77,5.77,0,0,1-2.205-3.148,5.436,5.436,0,0,1-.152-2.048,5.558,5.558,0,0,1,3.032-4.558,2.258,2.258,0,0,1,.313-.132,2.638,2.638,0,0,1,1.248.135,3.653,3.653,0,0,1,1.461.743c.226.186.45.372.663.571a5.2,5.2,0,0,1,1.127,1.674c.062.133.12.267.176.4s.023.2-.11.206c-.12-.058-.184-.179-.284-.261a2.251,2.251,0,0,0-2.242-.465,2.259,2.259,0,0,0-1.6,1.816,2.318,2.318,0,0,0,1.982,2.7,2.321,2.321,0,0,0,1.975-.679c.079-.076.134-.185.255-.213.083.03.064.091.042.15a6.021,6.021,0,0,1-.333.782,6.2,6.2,0,0,1-.819,1.234,4.616,4.616,0,0,1-2.958,1.624,1.3,1.3,0,0,1-.637-.011" transform="translate(-537.653 143.073)" fill="#fff" clip-rule="evenodd"/></clipPath><clipPath id="o"><path d="M566.42-105.874c.178.514.33,1.036.525,1.544A8.53,8.53,0,0,0,568.194-102c.117.146.243.284.363.426-.093.02-.144.1-.212.156a5.5,5.5,0,0,1-2.709,1.151,11.192,11.192,0,0,1-2.074.121,5.427,5.427,0,0,1-2.14-.443c-.058-.027-.114-.06-.172-.09a4.963,4.963,0,0,0,1.656-.3,4.623,4.623,0,0,0,1.609-1.048,6.017,6.017,0,0,0,1.35-2.105.642.642,0,0,0,.092-.3c-.037-.042-.013-.085,0-.124.15-.371.233-.762.352-1.142.021-.065.021-.149.109-.174" transform="translate(-561.25 105.874)" fill="#fff" clip-rule="evenodd"/></clipPath><clipPath id="q"><path d="M608.641-140.672c-.135-.445-.267-.892-.409-1.336a7.817,7.817,0,0,0-.94-2.02,4.923,4.923,0,0,0-1.331-1.381c-.165-.11-.34-.2-.51-.305.068,0,.075-.049.086-.1.037-.158.076-.316.1-.475.018-.105.069-.135.174-.135q2.351,0,4.7,0c.161,0,.165,0,.092.155a27.174,27.174,0,0,0-1.32,3.336c-.229.7-.424,1.406-.624,2.112a1.182,1.182,0,0,0-.02.144" transform="translate(-605.45 146.422)" fill="#fff" clip-rule="evenodd"/></clipPath><clipPath id="s"><path d="M566.16-142.325c.128,0,.057-.089.041-.127a4.557,4.557,0,0,0-.189-.434,7.473,7.473,0,0,0-.542-.976,4.887,4.887,0,0,0-.874-.94,6.425,6.425,0,0,0-.72-.555,3.693,3.693,0,0,0-1.1-.471,4.321,4.321,0,0,0-1.138-.165.19.19,0,0,1-.058-.017,3.654,3.654,0,0,1,1.111-.384,9.148,9.148,0,0,1,2.583-.089,6.873,6.873,0,0,1,2.181.517c.107.048.212.1.318.155a1.787,1.787,0,0,1,.795.439,3.99,3.99,0,0,1,.81.819,6.734,6.734,0,0,1,.96,1.672c.234.581.411,1.18.591,1.778.032.109.006.224.034.333a33.739,33.739,0,0,0,1.005,3.242q.366.994.8,1.962c.058.129.129.253.2.377.041.073.03.1-.058.1-.337-.011-.672-.034-1.007-.075a5.526,5.526,0,0,1-2.442-.835,6.008,6.008,0,0,1-.615-.5,1.083,1.083,0,0,1-.418-.4,8.506,8.506,0,0,1-1.249-2.324c-.161-.42-.294-.85-.435-1.277a1,1,0,0,0-.1-.282c-.107-.37-.192-.746-.319-1.11a1,1,0,0,0-.16-.326.072.072,0,0,1,0-.109" transform="translate(-561.58 146.534)" fill="#fff" clip-rule="evenodd"/></clipPath><clipPath id="u"><path d="M659.886-171.969h-.836v-.57h2.315v.57h-.834v2.357h-.645v-2.357" transform="translate(-659.05 172.539)" fill="#fff" clip-rule="evenodd"/></clipPath><clipPath id="w"><path d="M680.75-172.539h.975l.673,1.91h.009l.678-1.91h.97v2.927h-.644v-2.245H683.4l-.769,2.245h-.491l-.741-2.245h-.009v2.245h-.644v-2.927" transform="translate(-680.75 172.539)" fill="#fff" clip-rule="evenodd"/></clipPath></defs><g transform="translate(3363.001 -11008)"><g transform="translate(-3363.001 11009.084)" clip-path="url(#a)"><g transform="translate(-130.908 -15.876)" clip-path="url(#b)"><path d="M-4.7-177.539H11.2v16.554H-4.7Z" transform="translate(134.9 192.709)" fill="#fff"/></g></g><g transform="translate(-3346.605 11012.801)" clip-path="url(#c)"><g transform="translate(-147.319 -19.6)" clip-path="url(#b)"><path d="M111.55-151.158h12.666v13.034H111.55Z" transform="translate(35.063 170.053)" fill="#fff"/></g></g><g transform="translate(-3334.032 11012.801)" clip-path="url(#e)"><g transform="translate(-159.903 -19.6)" clip-path="url(#b)"><path d="M200.69-151.158h12.052v13.034H200.69Z" transform="translate(-41.493 170.053)" fill="#fff"/></g></g><g transform="translate(-3321.067 11008)" clip-path="url(#g)"><g transform="translate(-172.876 -14.792)" clip-path="url(#b)"><path d="M292.59-185.221h5.3v17.638h-5.3Z" transform="translate(-120.419 199.307)" fill="#fff"/></g></g><g transform="translate(-3314.734 11012.798)" clip-path="url(#i)"><g transform="translate(-179.219 -19.6)" clip-path="url(#b)"><path d="M337.52-151.158H351v17.331H337.52Z" transform="translate(-159.007 170.053)" fill="#fff"/></g></g><g transform="translate(-3300.75 11008)" clip-path="url(#k)"><g transform="translate(-193.215 -14.792)" clip-path="url(#b)"><path d="M436.66-185.221h12.83v17.638H436.66Z" transform="translate(-244.151 199.307)" fill="#fff"/></g></g><g transform="translate(-3287.209 11013.237)" clip-path="url(#m)"><g transform="translate(-206.766 -20.036)" clip-path="url(#b)"><path d="M532.653-148.073h9.508v11.9h-9.508Z" transform="translate(-326.593 167.403)" fill="#fff"/></g></g><g transform="translate(-3283.891 11018.484)" clip-path="url(#o)"><g transform="translate(-210.098 -25.287)" clip-path="url(#b)"><path d="M556.25-110.874h8.719v7.143H556.25Z" transform="translate(-346.858 135.456)" fill="#fff"/></g></g><g transform="translate(-3277.651 11012.767)" clip-path="url(#q)"><g transform="translate(-216.337 -19.563)" clip-path="url(#b)"><path d="M600.45-151.422h6.612v7.161H600.45Z" transform="translate(-384.819 170.279)" fill="#fff"/></g></g><g transform="translate(-3283.844 11012.748)" clip-path="url(#s)"><g transform="translate(-210.144 -19.547)" clip-path="url(#b)"><path d="M556.58-151.534H569.4v12.854H556.58Z" transform="translate(-347.142 170.376)" fill="#fff"/></g></g><g transform="translate(-3270.084 11009.084)" clip-path="url(#u)"><g transform="translate(-223.904 -15.876)" clip-path="url(#b)"><path d="M654.05-177.539h3.727v4.339H654.05Z" transform="translate(-430.852 192.709)" fill="#fff"/></g></g><g transform="translate(-3267.021 11009.084)" clip-path="url(#w)"><g transform="translate(-226.967 -15.876)" clip-path="url(#b)"><path d="M675.75-177.539h4.717v4.339H675.75Z" transform="translate(-449.488 192.709)" fill="#fff"/></g></g></g></svg>