<svg xmlns="http://www.w3.org/2000/svg" xmlns:xlink="http://www.w3.org/1999/xlink" width="153" height="32" viewBox="0 0 153 32"><defs><clipPath id="a"><path d="M22.735-163.636v5.133H22.7v9.41h-6.21v-9.41H6.513v9.41H.3v-23.446H6.513v8.9h9.98v-8.9H22.7v8.9h.033" transform="translate(-0.302 172.539)" fill="#fff" clip-rule="evenodd"/></clipPath><clipPath id="b"><path d="M-927-168.493h540.131V-285H-927Z" transform="translate(927 285)" fill="#fff"/></clipPath><clipPath id="c"><path d="M125.3-141.659q-2.157,0-2.566,2.82h5.1Q127.419-141.658,125.3-141.659Zm8.68,4.214a13.746,13.746,0,0,1-.221,2.408H122.76a2.314,2.314,0,0,0,1.093,1.679,6.369,6.369,0,0,0,2.995.507,22.747,22.747,0,0,0,5.924-.887v4.4a20.144,20.144,0,0,1-7.349,1.172,9.1,9.1,0,0,1-6.5-2.234q-2.377-2.233-2.376-6.543a9.347,9.347,0,0,1,2.391-6.685,8.29,8.29,0,0,1,6.322-2.535,8.548,8.548,0,0,1,6.322,2.392,8.55,8.55,0,0,1,2.391,6.321Z" transform="translate(-116.55 146.158)" fill="#fff" clip-rule="evenodd"/></clipPath><clipPath id="e"><path d="M211.9-133.9q0,1.49,2.439,1.489a5.235,5.235,0,0,0,1.806-.348v-2.376a5.037,5.037,0,0,0-1.806-.38Q211.9-135.512,211.9-133.9Zm10.265-5.734v11.343a11.3,11.3,0,0,1-5.006-1.109,11.487,11.487,0,0,1-5.323,1.235,6.515,6.515,0,0,1-4.547-1.457,5.33,5.33,0,0,1-1.6-4.151,4.943,4.943,0,0,1,1.838-4.135,8.356,8.356,0,0,1,5.259-1.442,9.453,9.453,0,0,1,3.358.634v-.412a2.046,2.046,0,0,0-.809-1.727,3.654,3.654,0,0,0-2.265-.618,25.266,25.266,0,0,0-6.02.76v-4.372a21.462,21.462,0,0,1,7.257-1.077,8.787,8.787,0,0,1,5.782,1.727,5.9,5.9,0,0,1,2.074,4.8Z" transform="translate(-205.69 146.158)" fill="#fff" clip-rule="evenodd"/></clipPath><clipPath id="g"><path d="M297.59-155.1v-23.383l6.02-1.742V-155.1h-6.02" transform="translate(-297.59 180.221)" fill="#fff" clip-rule="evenodd"/></clipPath><clipPath id="i"><path d="M350.949-132.851a3.843,3.843,0,0,0,2.947-1.188A4.391,4.391,0,0,0,355-137.16a4.734,4.734,0,0,0-.981-3.137,3.332,3.332,0,0,0-2.7-1.172,6.234,6.234,0,0,0-2.787.729v7.224A5.471,5.471,0,0,0,350.949-132.851Zm1.932-13.307a7.882,7.882,0,0,1,6.035,2.455,9.143,9.143,0,0,1,2.3,6.511,9,9,0,0,1-2.409,6.543,8.454,8.454,0,0,1-6.368,2.487,9.259,9.259,0,0,1-3.9-.887v7.541h-6.02v-24.523a10.6,10.6,0,0,1,5.132,1.172,10.842,10.842,0,0,1,5.229-1.3Z" transform="translate(-342.52 146.158)" fill="#fff" clip-rule="evenodd"/></clipPath><clipPath id="k"><path d="M452.972-172.775q6.367,0,6.368,7V-155.1h-6.018v-10.2a2.48,2.48,0,0,0-2.822-2.788,5.347,5.347,0,0,0-2.82.855V-155.1h-6.02v-23.383l6.02-1.742v8.745a12.558,12.558,0,0,1,5.292-1.3" transform="translate(-441.66 180.221)" fill="#fff" clip-rule="evenodd"/></clipPath><clipPath id="m"><path d="M542.811-126.9a5.993,5.993,0,0,1-1.458-.809,8.935,8.935,0,0,1-3.414-4.875,8.417,8.417,0,0,1-.236-3.172,8.606,8.606,0,0,1,4.7-7.057,3.494,3.494,0,0,1,.485-.2,4.085,4.085,0,0,1,1.932.209,5.655,5.655,0,0,1,2.262,1.15c.35.288.7.575,1.027.885a8.051,8.051,0,0,1,1.744,2.592c.1.205.186.413.273.621s.035.3-.17.319c-.186-.09-.284-.278-.439-.4a3.486,3.486,0,0,0-3.471-.721,3.5,3.5,0,0,0-2.47,2.812,3.59,3.59,0,0,0,3.069,4.183,3.594,3.594,0,0,0,3.058-1.051c.122-.118.208-.286.4-.329.129.046.1.141.066.233a9.314,9.314,0,0,1-.516,1.211,9.6,9.6,0,0,1-1.268,1.91,7.147,7.147,0,0,1-4.58,2.515,2.018,2.018,0,0,1-.986-.018" transform="translate(-537.653 143.073)" fill="#fff" clip-rule="evenodd"/></clipPath><clipPath id="o"><path d="M569.255-105.874c.275.8.511,1.6.813,2.391A13.205,13.205,0,0,0,572-99.88c.181.225.376.44.562.659-.144.031-.223.156-.328.242a8.52,8.52,0,0,1-4.195,1.781,17.329,17.329,0,0,1-3.211.188,8.4,8.4,0,0,1-3.314-.686c-.09-.042-.177-.092-.267-.139a7.684,7.684,0,0,0,2.564-.47,7.158,7.158,0,0,0,2.492-1.623,9.316,9.316,0,0,0,2.09-3.26,1,1,0,0,0,.142-.458c-.057-.065-.02-.131,0-.192.232-.574.361-1.181.544-1.769.033-.1.033-.23.168-.269" transform="translate(-561.25 105.874)" fill="#fff" clip-rule="evenodd"/></clipPath><clipPath id="q"><path d="M610.39-137.519c-.21-.69-.413-1.382-.634-2.069a12.1,12.1,0,0,0-1.456-3.128,7.624,7.624,0,0,0-2.061-2.139c-.256-.17-.527-.316-.789-.472.1,0,.116-.076.133-.15.057-.245.118-.489.162-.736.028-.163.107-.209.269-.209q3.639.007,7.275,0c.249,0,.256.008.142.24a42.072,42.072,0,0,0-2.044,5.165c-.354,1.081-.656,2.177-.966,3.271a1.8,1.8,0,0,0-.031.223" transform="translate(-605.45 146.422)" fill="#fff" clip-rule="evenodd"/></clipPath><clipPath id="s"><path d="M568.671-140.017c.2,0,.087-.137.063-.2a7.068,7.068,0,0,0-.293-.672,11.557,11.557,0,0,0-.839-1.511,7.567,7.567,0,0,0-1.353-1.455,9.945,9.945,0,0,0-1.115-.86,5.718,5.718,0,0,0-1.7-.729,6.69,6.69,0,0,0-1.762-.255.3.3,0,0,1-.09-.027,5.657,5.657,0,0,1,1.72-.6,14.165,14.165,0,0,1,4-.137,10.642,10.642,0,0,1,3.377.8c.166.074.328.16.492.24a2.767,2.767,0,0,1,1.231.68,6.181,6.181,0,0,1,1.255,1.269,10.428,10.428,0,0,1,1.486,2.59c.363.9.636,1.827.916,2.754.05.169.009.346.052.515a52.23,52.23,0,0,0,1.556,5.019q.567,1.538,1.233,3.037c.09.2.2.392.306.584.063.113.046.153-.09.149-.522-.017-1.04-.052-1.559-.115a8.555,8.555,0,0,1-3.781-1.293,9.287,9.287,0,0,1-.953-.767,1.677,1.677,0,0,1-.647-.62,13.172,13.172,0,0,1-1.935-3.6c-.249-.651-.455-1.316-.673-1.978a1.549,1.549,0,0,0-.149-.437c-.166-.572-.3-1.155-.494-1.719a1.558,1.558,0,0,0-.247-.5.111.111,0,0,1-.007-.168" transform="translate(-561.58 146.534)" fill="#fff" clip-rule="evenodd"/></clipPath><clipPath id="u"><path d="M660.344-171.656H659.05v-.883h3.585v.883h-1.292v3.649h-1v-3.649" transform="translate(-659.05 172.539)" fill="#fff" clip-rule="evenodd"/></clipPath><clipPath id="w"><path d="M680.75-172.539h1.51l1.043,2.958h.013l1.049-2.958h1.5v4.532h-1v-3.476h-.011l-1.191,3.476h-.761l-1.147-3.476h-.013v3.476h-1v-4.532" transform="translate(-680.75 172.539)" fill="#fff" clip-rule="evenodd"/></clipPath></defs><g transform="translate(3363.001 -11008)"><g transform="translate(-3363.001 11009.679)" clip-path="url(#a)"><g transform="translate(-202.697 -24.583)" clip-path="url(#b)"><path d="M-4.7-177.539H19.921v25.632H-4.7Z" transform="translate(206.302 201.029)" fill="#fff"/></g></g><g transform="translate(-3337.75 11015.392)" clip-path="url(#c)"><g transform="translate(-228.108 -30.349)" clip-path="url(#b)"><path d="M111.55-151.158h19.612v20.182H111.55Z" transform="translate(115.465 180.414)" fill="#fff"/></g></g><g transform="translate(-3318.385 11015.392)" clip-path="url(#e)"><g transform="translate(-247.593 -30.349)" clip-path="url(#b)"><path d="M200.69-151.158h18.661v20.182H200.69Z" transform="translate(45.81 180.414)" fill="#fff"/></g></g><g transform="translate(-3298.393 11008)" clip-path="url(#g)"><g transform="translate(-267.681 -22.903)" clip-path="url(#b)"><path d="M292.59-185.221H300.8v27.311H292.59Z" transform="translate(-26.002 207.032)" fill="#fff"/></g></g><g transform="translate(-3288.669 11015.35)" clip-path="url(#i)"><g transform="translate(-277.502 -30.349)" clip-path="url(#b)"><path d="M337.52-151.158H358.4v26.836H337.52Z" transform="translate(-61.111 180.414)" fill="#fff"/></g></g><g transform="translate(-3267.131 11008)" clip-path="url(#k)"><g transform="translate(-299.173 -22.903)" clip-path="url(#b)"><path d="M436.66-185.221h19.865v27.311H436.66Z" transform="translate(-138.58 207.032)" fill="#fff"/></g></g><g transform="translate(-3246.253 11016.069)" clip-path="url(#m)"><g transform="translate(-320.156 -31.024)" clip-path="url(#b)"><path d="M532.653-148.073h14.721v18.428H532.653Z" transform="translate(-213.59 178.003)" fill="#fff"/></g></g><g transform="translate(-3241.239 11024.178)" clip-path="url(#o)"><g transform="translate(-325.314 -39.155)" clip-path="url(#b)"><path d="M556.25-110.874h13.5v11.06h-13.5Z" transform="translate(-232.029 148.936)" fill="#fff"/></g></g><g transform="translate(-3231.577 11015.355)" clip-path="url(#q)"><g transform="translate(-334.975 -30.292)" clip-path="url(#b)"><path d="M600.45-151.422h10.237v11.089H600.45Z" transform="translate(-266.568 180.621)" fill="#fff"/></g></g><g transform="translate(-3241.167 11015.313)" clip-path="url(#s)"><g transform="translate(-325.386 -30.267)" clip-path="url(#b)"><path d="M556.58-151.534h19.846v19.9H556.58Z" transform="translate(-232.287 180.708)" fill="#fff"/></g></g><g transform="translate(-3219.861 11009.679)" clip-path="url(#u)"><g transform="translate(-346.692 -24.583)" clip-path="url(#b)"><path d="M654.05-177.539h5.771v6.718H654.05Z" transform="translate(-308.451 201.029)" fill="#fff"/></g></g><g transform="translate(-3215.118 11009.679)" clip-path="url(#w)"><g transform="translate(-351.435 -24.583)" clip-path="url(#b)"><path d="M675.75-177.539h7.3v6.718h-7.3Z" transform="translate(-325.408 201.029)" fill="#fff"/></g></g></g></svg>