<svg xmlns="http://www.w3.org/2000/svg" xmlns:xlink="http://www.w3.org/1999/xlink" width="120" height="25" viewBox="0 0 120 25"><defs><clipPath id="a"><path d="M17.851-165.574v4.015h-.026v7.361H12.967v-7.361H5.16v7.361H.3v-18.341H5.16v6.965h7.807v-6.965h4.858v6.965h.026" transform="translate(-0.302 172.539)" fill="none" clip-rule="evenodd"/></clipPath><clipPath id="b"><path d="M-927-193.859h422.533V-285H-927Z" transform="translate(927 285)" fill="none"/></clipPath><clipPath id="c"><path d="M123.392-142.639q-1.688,0-2.007,2.206h3.989Q125.053-142.638,123.392-142.639Zm6.79,3.3a10.754,10.754,0,0,1-.173,1.884h-8.6a1.811,1.811,0,0,0,.855,1.314,4.982,4.982,0,0,0,2.343.4,17.8,17.8,0,0,0,4.634-.694V-133a15.759,15.759,0,0,1-5.749.917,7.122,7.122,0,0,1-5.082-1.747,6.688,6.688,0,0,1-1.859-5.118,7.312,7.312,0,0,1,1.871-5.23,6.485,6.485,0,0,1,4.945-1.983,6.687,6.687,0,0,1,4.945,1.871,6.688,6.688,0,0,1,1.871,4.945Z" transform="translate(-116.55 146.158)" fill="none" clip-rule="evenodd"/></clipPath><clipPath id="e"><path d="M210.548-136.566q0,1.165,1.908,1.165a4.1,4.1,0,0,0,1.412-.273v-1.859a3.94,3.94,0,0,0-1.412-.3Q210.548-137.83,210.548-136.566Zm8.03-4.486v8.873a8.837,8.837,0,0,1-3.916-.867,8.986,8.986,0,0,1-4.164.966,5.1,5.1,0,0,1-3.557-1.14,4.169,4.169,0,0,1-1.252-3.247,3.867,3.867,0,0,1,1.438-3.235,6.537,6.537,0,0,1,4.114-1.128,7.4,7.4,0,0,1,2.627.5v-.322a1.6,1.6,0,0,0-.633-1.351,2.859,2.859,0,0,0-1.772-.483,19.764,19.764,0,0,0-4.709.595v-3.42a16.79,16.79,0,0,1,5.677-.843,6.874,6.874,0,0,1,4.523,1.351,4.618,4.618,0,0,1,1.623,3.755Z" transform="translate(-205.69 146.158)" fill="none" clip-rule="evenodd"/></clipPath><clipPath id="g"><path d="M297.59-160.566v-18.292l4.709-1.363v19.655H297.59" transform="translate(-297.59 180.221)" fill="none" clip-rule="evenodd"/></clipPath><clipPath id="i"><path d="M349.114-135.748a3.007,3.007,0,0,0,2.305-.93,3.435,3.435,0,0,0,.867-2.441,3.7,3.7,0,0,0-.768-2.454,2.607,2.607,0,0,0-2.108-.917,4.877,4.877,0,0,0-2.18.57v5.651A4.28,4.28,0,0,0,349.114-135.748Zm1.512-10.41a6.166,6.166,0,0,1,4.721,1.921,7.152,7.152,0,0,1,1.8,5.093,7.043,7.043,0,0,1-1.884,5.118,6.614,6.614,0,0,1-4.981,1.946,7.243,7.243,0,0,1-3.049-.694v5.9H342.52v-19.184a8.288,8.288,0,0,1,4.015.917,8.482,8.482,0,0,1,4.09-1.016Z" transform="translate(-342.52 146.158)" fill="none" clip-rule="evenodd"/></clipPath><clipPath id="k"><path d="M450.509-174.4q4.981,0,4.981,5.478v8.353h-4.708v-7.981a1.94,1.94,0,0,0-2.208-2.181,4.183,4.183,0,0,0-2.206.669v9.493H441.66v-18.292l4.709-1.363v6.841a9.824,9.824,0,0,1,4.14-1.016" transform="translate(-441.66 180.221)" fill="none" clip-rule="evenodd"/></clipPath><clipPath id="m"><path d="M541.688-130.422a4.688,4.688,0,0,1-1.141-.633,6.99,6.99,0,0,1-2.671-3.813,6.585,6.585,0,0,1-.185-2.481,6.732,6.732,0,0,1,3.673-5.52,2.737,2.737,0,0,1,.38-.16,3.2,3.2,0,0,1,1.512.164,4.425,4.425,0,0,1,1.77.9c.273.225.546.45.8.692a6.3,6.3,0,0,1,1.365,2.028c.075.161.145.323.214.486s.027.238-.133.25c-.145-.07-.222-.217-.344-.317a2.727,2.727,0,0,0-2.715-.564,2.737,2.737,0,0,0-1.932,2.2,2.808,2.808,0,0,0,2.4,3.272,2.812,2.812,0,0,0,2.392-.822c.1-.092.162-.224.309-.258.1.036.077.11.051.182a7.3,7.3,0,0,1-.4.947,7.512,7.512,0,0,1-.992,1.495,5.591,5.591,0,0,1-3.582,1.967,1.578,1.578,0,0,1-.771-.014" transform="translate(-537.653 143.073)" fill="none" clip-rule="evenodd"/></clipPath><clipPath id="o"><path d="M567.512-105.874c.215.622.4,1.255.636,1.87a10.332,10.332,0,0,0,1.513,2.819c.142.176.294.344.439.516-.113.025-.174.122-.256.189a6.665,6.665,0,0,1-3.281,1.394,13.557,13.557,0,0,1-2.512.147,6.574,6.574,0,0,1-2.592-.537c-.07-.033-.139-.072-.209-.109a6.012,6.012,0,0,0,2.006-.367,5.6,5.6,0,0,0,1.949-1.27,7.287,7.287,0,0,0,1.635-2.55.777.777,0,0,0,.111-.358c-.044-.051-.015-.1,0-.15.181-.449.282-.924.426-1.384.026-.079.026-.18.132-.21" transform="translate(-561.25 105.874)" fill="none" clip-rule="evenodd"/></clipPath><clipPath id="q"><path d="M609.315-139.458c-.164-.539-.323-1.081-.5-1.618a9.469,9.469,0,0,0-1.139-2.447,5.962,5.962,0,0,0-1.612-1.673c-.2-.133-.412-.247-.617-.37.082,0,.091-.06.1-.117.044-.192.092-.383.126-.576.022-.128.084-.164.21-.164q2.847.005,5.691,0c.195,0,.2.006.111.188a32.919,32.919,0,0,0-1.6,4.041c-.277.846-.513,1.7-.756,2.559a1.43,1.43,0,0,0-.024.174" transform="translate(-605.45 146.422)" fill="none" clip-rule="evenodd"/></clipPath><clipPath id="s"><path d="M567.127-141.436c.156,0,.068-.108.05-.154a5.527,5.527,0,0,0-.229-.526,9.05,9.05,0,0,0-.657-1.182,5.921,5.921,0,0,0-1.059-1.138,7.789,7.789,0,0,0-.872-.672,4.474,4.474,0,0,0-1.332-.57,5.234,5.234,0,0,0-1.378-.2.23.23,0,0,1-.07-.021,4.426,4.426,0,0,1,1.346-.465,11.08,11.08,0,0,1,3.129-.108,8.326,8.326,0,0,1,2.642.627c.13.058.256.125.385.188a2.164,2.164,0,0,1,.963.532,4.833,4.833,0,0,1,.982.993,8.157,8.157,0,0,1,1.163,2.026c.284.7.5,1.43.716,2.154.039.132.007.271.041.4a40.859,40.859,0,0,0,1.218,3.927q.444,1.2.964,2.376c.07.157.156.307.239.457.05.089.036.12-.07.117-.409-.013-.814-.041-1.219-.09a6.693,6.693,0,0,1-2.958-1.012,7.273,7.273,0,0,1-.746-.6,1.312,1.312,0,0,1-.506-.485,10.3,10.3,0,0,1-1.513-2.815c-.195-.509-.356-1.03-.527-1.547a1.211,1.211,0,0,0-.116-.342c-.13-.448-.233-.9-.386-1.345a1.217,1.217,0,0,0-.193-.394.087.087,0,0,1-.005-.132" transform="translate(-561.58 146.534)" fill="none" clip-rule="evenodd"/></clipPath><clipPath id="u"><path d="M660.062-171.848H659.05v-.691h2.8v.691h-1.011v2.855h-.781v-2.855" transform="translate(-659.05 172.539)" fill="none" clip-rule="evenodd"/></clipPath><clipPath id="w"><path d="M680.75-172.539h1.182l.816,2.314h.01l.821-2.314h1.175v3.545h-.78v-2.719h-.009l-.932,2.719h-.6l-.9-2.719h-.01v2.719h-.78v-3.545" transform="translate(-680.75 172.539)" fill="none" clip-rule="evenodd"/></clipPath></defs><g transform="translate(3363 -11008)"><g transform="translate(-3363.001 11009.313)" clip-path="url(#a)"><g transform="translate(-158.566 -19.23)" clip-path="url(#b)"><path d="M-4.7-177.539H14.561v20.051H-4.7Z" transform="translate(162.409 195.914)" fill="#35556f"/></g></g><g transform="translate(-3343.189 11013.766)" clip-path="url(#c)"><g transform="translate(-178.444 -23.742)" clip-path="url(#b)"><path d="M111.55-151.158h15.342v15.788H111.55Z" transform="translate(66.039 174.045)" fill="#35556f"/></g></g><g transform="translate(-3327.997 11013.766)" clip-path="url(#e)"><g transform="translate(-193.686 -23.742)" clip-path="url(#b)"><path d="M200.69-151.158h14.6v15.788h-14.6Z" transform="translate(-7.859 174.045)" fill="#35556f"/></g></g><g transform="translate(-3312.323 11008)" clip-path="url(#g)"><g transform="translate(-209.401 -17.917)" clip-path="url(#b)"><path d="M292.59-185.221h6.419v21.365H292.59Z" transform="translate(-84.044 202.283)" fill="#35556f"/></g></g><g transform="translate(-3304.68 11013.717)" clip-path="url(#i)"><g transform="translate(-217.084 -23.742)" clip-path="url(#b)"><path d="M337.52-151.158h16.334v20.993H337.52Z" transform="translate(-121.291 174.045)" fill="#35556f"/></g></g><g transform="translate(-3287.783 11008)" clip-path="url(#k)"><g transform="translate(-234.036 -17.917)" clip-path="url(#b)"><path d="M436.66-185.221H452.2v21.365H436.66Z" transform="translate(-203.479 202.283)" fill="#35556f"/></g></g><g transform="translate(-3271.412 11014.295)" clip-path="url(#m)"><g transform="translate(-250.451 -24.269)" clip-path="url(#b)"><path d="M532.653-148.073H544.17v14.416H532.653Z" transform="translate(-283.057 171.487)" fill="#e57873"/></g></g><g transform="translate(-3267.438 11020.633)" clip-path="url(#o)"><g transform="translate(-254.486 -30.63)" clip-path="url(#b)"><path d="M556.25-110.874h10.561v8.652H556.25Z" transform="translate(-302.619 140.649)" fill="#e57873"/></g></g><g transform="translate(-3259.879 11013.743)" clip-path="url(#q)"><g transform="translate(-262.044 -23.696)" clip-path="url(#b)"><path d="M600.45-151.422h8.008v8.674H600.45Z" transform="translate(-339.261 174.263)" fill="#e57873"/></g></g><g transform="translate(-3267.381 11013.702)" clip-path="url(#s)"><g transform="translate(-254.542 -23.677)" clip-path="url(#b)"><path d="M556.58-151.534h15.525v15.57H556.58Z" transform="translate(-302.893 174.356)" fill="#e57873"/></g></g><g transform="translate(-3250.714 11009.313)" clip-path="url(#u)"><g transform="translate(-271.209 -19.23)" clip-path="url(#b)"><path d="M654.05-177.539h4.514v5.255H654.05Z" transform="translate(-383.696 195.914)" fill="#1b1a18"/></g></g><g transform="translate(-3247.004 11009.313)" clip-path="url(#w)"><g transform="translate(-274.92 -19.23)" clip-path="url(#b)"><path d="M675.75-177.539h5.713v5.255H675.75Z" transform="translate(-401.685 195.914)" fill="#1b1a18"/></g></g></g></svg>