<svg xmlns="http://www.w3.org/2000/svg" width="36" height="36" viewBox="0 0 36 36"><g transform="translate(7084 -13660)"><g transform="translate(-2639 1633)"><path d="M17,32A15,15,0,1,1,32,17,15,15,0,0,1,17,32Z" transform="translate(-4444 12028)" fill="#d3edf5"/><path d="M10.053,13.584a1.6,1.6,0,1,1,0-3.193A1.6,1.6,0,1,0,8.671,8,1.6,1.6,0,1,1,5.9,6.4a4.79,4.79,0,1,1,4.148,7.184Zm0,4.783a1.6,1.6,0,0,1-1.134-2.714,1.64,1.64,0,0,1,2.267,0,1.663,1.663,0,0,1,.463,1.118,1.36,1.36,0,0,1-.128.622,1.585,1.585,0,0,1-.335.511,1.9,1.9,0,0,1-.527.351A1.581,1.581,0,0,1,10.053,18.368Z" transform="translate(-4437.69 12033.995)" fill="#04a6d6"/></g><rect width="36" height="36" transform="translate(-7084 13660)" fill="none"/></g></svg>