<svg xmlns="http://www.w3.org/2000/svg" width="227.065" height="120" viewBox="0 0 227.065 120">
  <g id="Page-1" transform="translate(-0.093 -0.469)">
    <g id="Group-5" transform="translate(0.093 0.469)">
      <g id="Group-4" transform="translate(0 0)">
        <g id="Group-3" transform="translate(0 4.444)">
          <path id="Fill-1295" d="M37.673,166.172l7.932-3.563v3.511a10.843,10.843,0,0,0,.9,4.32,7.314,7.314,0,0,1-2.192-.034,2.892,2.892,0,0,1-1.42-.581l-.455-.407A14.688,14.688,0,0,0,40.55,168l-2.877-1.827" transform="translate(-17.32 -75.112)" fill="#fff" fill-rule="evenodd"/>
          <path id="Fill-1296" d="M74.366,11.427S74.75,1.232,64.022.786c0,0-7.807-3.012-11.619,2.753,0,0-5.76,1.079-6.364,6.412a9.655,9.655,0,0,0,.244,3.386s-.8,7.581,3.549,11.308a5.235,5.235,0,0,0,2.292,5.347v0l-1.242-4.9L50.13,22.1s.829-1.3.829-5.232c0,0,4.8-2.273,5.059-4.723,0,0,4.23.873,6.657-.528A25.22,25.22,0,0,0,67.9,13.907a2.171,2.171,0,0,1,1.64,1.4,49.685,49.685,0,0,0,2.657,6.369v0l.767,3.036a7.254,7.254,0,0,1,.226,1.961h0s2.647-.614,2.647-5.227a16.611,16.611,0,0,0-1.472-10.023" transform="translate(-21.14 0)" fill="#191e27" fill-rule="evenodd"/>
          <path id="Fill-1297" d="M91.19,64.632c-1.506-.263-3.961-2.354-3.961-2.354l-7.855,10.2,9.918-2.062.35-.072a4.3,4.3,0,0,0,3.4-3.75l.067-.642L91.19,64.632" transform="translate(-36.491 -28.77)" fill="#fff" fill-rule="evenodd"/>
          <path id="Fill-1298" d="M64.762,69.459C64.34,71.52,62.1,73.587,62.1,73.587a1.737,1.737,0,0,0-.048.413,1.762,1.762,0,0,0,1.635,1.755l2.724.2,1.127.082-2.772-6.579" transform="translate(-28.526 -32.082)" fill="#fff" fill-rule="evenodd"/>
          <path id="Fill-1299" d="M70.783,138.483,69,139.515l-2.8.216c-2.762-6.906-1.314-11.62-1.314-11.62s2.767,1.055,8.43-3.275a16.6,16.6,0,0,1,4.331-2.35,13,13,0,0,0,4.388-3.179,4.036,4.036,0,0,1,1.472-.974.863.863,0,0,1,.307-.052.9.9,0,0,1,.791.465.89.89,0,0,1,.105.422.881.881,0,0,1-.105.427L83.5,121.656l-.158.388a4.481,4.481,0,0,1-2.283,2.378l-.144.37a1.961,1.961,0,0,0,.22,1.9c.048.058.1.115.153.173l-.873,2.532-1.017,3.41-.647.277a12.046,12.046,0,0,0-3.952,2.735l-1.525,1.592-1.75.647-.739.427" transform="translate(-29.656 -54.672)" fill="#fff" fill-rule="evenodd"/>
          <path id="Fill-1300" d="M54.78,95.884l-.994,1.829-.222.569a4.966,4.966,0,0,1-2.163,2.1l-.195.473a1.971,1.971,0,0,0,.27,1.9c.048.058.061.068.113.125l-.873,2.552-.973,3.347-.737.314a11.782,11.782,0,0,0-3.887,2.719l-1.511,1.564-1.779.644-2.492,1.467-2.789.168c-2.762-6.868-1.32-11.489-1.32-11.489s2.767,1.049,8.43-3.257a16.625,16.625,0,0,1,4.331-2.337A13,13,0,0,0,52.378,95.4a4.038,4.038,0,0,1,1.472-.968.868.868,0,0,1,.307-.053.9.9,0,0,1,.791.463.969.969,0,0,1,.075.45C55.024,95.444,54.785,95.7,54.78,95.884Zm-27.8,30.027a2.732,2.732,0,0,1-1.4-.586l-.463-.4a12.86,12.86,0,0,0-1.761-1.324L20.38,121.7l7.9-3.493V121.7a10.566,10.566,0,0,0,.888,4.263A7.27,7.27,0,0,1,26.981,125.911ZM77.555,114l3.414-10.7a13.831,13.831,0,0,0,.379-6.978L78.922,84.383a13.769,13.769,0,0,0-.9-2.824,13.92,13.92,0,0,0-6.445-6.816L60.7,69.2q-1.489-.758-3.036-1.378L54.7,66.635l1.918,1.317-.067.639a4.285,4.285,0,0,1-3.4,3.73l-.35.072-9.918,2.051a14.076,14.076,0,0,1-3.874.253l-1.127-.081-2.724-.2a1.757,1.757,0,0,1-1.635-1.746,1.719,1.719,0,0,1,.048-.411L31.55,74.076l-7.716,3.663a6.185,6.185,0,0,1-2.336.592l-.561.029a6.15,6.15,0,0,0-3.5,1.306l-.585.463A6.1,6.1,0,0,0,14.766,83.2a6.108,6.108,0,0,1-1.39,2.437,6.578,6.578,0,0,0-1.741,3.816l-.057.573L7.443,97.857l-5.6,6.315a4.135,4.135,0,0,0-1,2.2l-.82,6.457a3.763,3.763,0,0,0,.58,2.518l4.316,6.61a3.641,3.641,0,0,0,2.781,1.632l5.736.42a6.319,6.319,0,0,0,3.045-.534l1.492-.668.1.22s2.278,13.279,2.278,13.85c0,.282-.269,1.789-.547,3.258a11.2,11.2,0,0,0,.547,6.057H78.9l.269-1.545a8.107,8.107,0,0,0-.182-3.558l-2.916-10.478a6.373,6.373,0,0,1,.106-3.763l.3-.863a4.54,4.54,0,0,0-1.036-4.617l-.379-.391.288-2.867L77.555,114Z" transform="translate(0 -30.635)" fill="#34d9f4" fill-rule="evenodd"/>
          <path id="Fill-1301" d="M81.067,60.436,73.212,70.642a14,14,0,0,1-3.874.254l-.676-1.611-2.1-4.968v0l-.595-2.355a7.432,7.432,0,0,0,4.421.235l6.35-1.607c.043-.009.081-.024.125-.033a7.429,7.429,0,0,0,3.654-2.278l.547,2.163" transform="translate(-30.329 -26.923)" fill="#efa1a2" fill-rule="evenodd"/>
          <path id="Fill-1302" d="M74.29,30.734l-8.653-.421a9.1,9.1,0,0,0-4.853,1.131l-6.372,3.534-.753-2.988s.829-1.3.829-5.232c0,0,4.8-2.273,5.059-4.723,0,0,4.23.873,6.657-.528a25.22,25.22,0,0,0,5.223,2.288,2.171,2.171,0,0,1,1.64,1.4,49.685,49.685,0,0,0,2.657,6.369v0l.767,3.036a7.255,7.255,0,0,1,.226,1.961,7.387,7.387,0,0,1-.835,3.309h0C73,37,74.29,30.734,74.29,30.734" transform="translate(-24.669 -9.887)" fill="#ffb0b1" fill-rule="evenodd"/>
          <path id="Fill-1303" d="M100.356,162.424l-4.72,4-1.188.992a15.459,15.459,0,0,1-1.229.962,10.5,10.5,0,0,1-4.358,1.717,14.739,14.739,0,0,0-1.512.234,10.1,10.1,0,0,0-1.448.439c-.467.181-.935.408-1.406.616l-2.822,1.27c-.469.207-.936.435-1.436.619a10.384,10.384,0,0,1-1.521.437,12.555,12.555,0,0,1-1.56.2l-1.541.135-3.083.27-3.088.268a10.112,10.112,0,0,1-3.131-.279c-3.986-1.117-7.941-2.26-11.9-3.447l6,1.516,5.983,1.559a10.5,10.5,0,0,0,3.014.222l3.076-.29,3.081-.293,1.54-.146a12.4,12.4,0,0,0,1.505-.2,9.961,9.961,0,0,0,1.453-.406c.471-.169.935-.39,1.41-.6l2.831-1.249c.474-.2.936-.426,1.432-.615a10.486,10.486,0,0,1,1.514-.446,13.736,13.736,0,0,1,1.546-.226,10.115,10.115,0,0,0,4.241-1.567,14.874,14.874,0,0,0,1.227-.918l1.211-.964,4.874-3.817" transform="translate(-25.017 -75.108)" fill-rule="evenodd" opacity="0.1"/>
          <path id="Fill-1304" d="M50.562,157.98c-.675.251-1.357.481-2.036.719s-1.364.458-2.047.686q-2.047.684-4.108,1.321l.029-.01c-1.961.895-3.929,1.776-5.909,2.627S32.521,165,30.5,165.778c1.917-.994,3.864-1.921,5.812-2.846s3.917-1.8,5.889-2.673l.016-.007.014,0q2.069-.609,4.151-1.175c.694-.189,1.385-.388,2.084-.563s1.392-.364,2.093-.53" transform="translate(-14.024 -72.973)" fill-rule="evenodd" opacity="0.1"/>
          <path id="Fill-1305" d="M15.116,133.568c1.038-.051,2.076-.075,3.114-.112s2.076-.044,3.114-.067h.018l.025.006c2,.441,3.977.951,5.966,1.423l-.058-.007c1.24-.015,2.479,0,3.719.008l3.72.029c2.479.046,4.959.091,7.439.2-2.48.112-4.96.158-7.439.2l-3.72.029c-1.24.007-2.479.023-3.719.008h-.032l-.025-.007c-1.978-.516-3.966-1-5.937-1.542l.043,0c-1.038-.023-2.076-.036-3.114-.067s-2.076-.061-3.114-.111" transform="translate(-6.949 -61.599)" fill-rule="evenodd" opacity="0.1"/>
          <path id="Fill-1315" d="M116.764,195.954c.116-.817.239-1.629.325-2.448q.158-1.223.269-2.45c.147-1.636.267-3.272.321-4.91s.035-3.277-.027-4.914c-.052-.817-.1-1.637-.205-2.45-.054-.822-.227-1.625-.329-2.445a27.18,27.18,0,0,1,.916,4.867,39.173,39.173,0,0,1,.143,4.96,47.621,47.621,0,0,1-.44,4.937,39.359,39.359,0,0,1-.972,4.853" transform="translate(-53.681 -81.505)" fill-rule="evenodd" opacity="0.1"/>
          <path id="Fill-1318" d="M89.758,38.542a.227.227,0,0,1-.15-.056A.193.193,0,0,1,89.6,38.2l1.536-1.491a.228.228,0,0,1,.306-.006.192.192,0,0,1,.007.285l-1.536,1.491a.223.223,0,0,1-.157.062" transform="translate(-41.166 -16.41)" fill="#ffb0b1" fill-rule="evenodd"/>
          <path id="Fill-1319" d="M76.518,47.359c-2.873-2.873-1.444-9.15-1.444-9.15l-8.8-.412a9.091,9.091,0,0,0-4.846,1.129l-6.375,3.537,1.242,4.9v0a7.476,7.476,0,0,0,9.078,5.41l6.35-1.607A7.443,7.443,0,0,0,75.5,48.855a7.569,7.569,0,0,0,1.022-1.5h0" transform="translate(-25.31 -17.46)" fill="#ffb0b1" fill-rule="evenodd"/>
        </g>
        <g id="Group" transform="translate(130.659 10.363)">
          <path id="Fill-1322" d="M115.793,108.419l-1.55.652-5.875-13.986a.841.841,0,0,1,1.551-.651l5.875,13.986" transform="translate(-49.79 -43.411)" fill="#fff" fill-rule="evenodd"/>
          <path id="Fill-1323" d="M81.379,38.594c.055.89-.2,1.757-.1,2.658.126,1.137,5.11,19.749,4.782,20.12-.925,1.05-11.871-1.715-13.435-3.239-1.535-1.5-1.072-4.721-.841-6.574a22.286,22.286,0,0,1,3.587-10.2c1.52-2.183,3.348-3.257,6-2.763" transform="translate(-32.889 -17.793)" fill="#191e27" fill-rule="evenodd"/>
          <path id="Fill-1324" d="M53.495,3.59c-3.436-4.2-12.8-4.244-17.8-1.62-2.338,1.227-6.6,7.561-7.134,8.931-1.4,3.558-14.278,20.755-9.853,24.636,2.365.453,19.475,6.428,21.324,6.49,3.174.107,3.34-5.023,3.917-7.369a126.769,126.769,0,0,0,2.219-14.148c.634-4.892,2.345-9.529,3.627-14.242" transform="translate(-8.012 -0.13)" fill="#191e27" fill-rule="evenodd"/>
          <path id="Fill-1326" d="M133.256,113.212l-16.622,21.94-.249-.25-3.228-1.616a1.2,1.2,0,0,0-1.549.427,1.162,1.162,0,0,0-.187.643,1.222,1.222,0,0,0,.374.878l.466.436-1.444-1.209a1.12,1.12,0,0,0-1.492,1.669l1.884,1.794L113,140.341a.1.1,0,0,1-.13.144l-3.184-1.842-1.458-1.1a1.037,1.037,0,0,0-1.669.824,1.057,1.057,0,0,0,.245.672l1.28,1.525,1.16.959-1.146-.806a1.006,1.006,0,0,0-1.377.216.992.992,0,0,0-.206.6,1.006,1.006,0,0,0,.269.686l1.165,1.257,1.4,1.28-4.623,6.1-9.251-.288-15.327-.479c.46-.461,5.827-7.578,11.884-15.658,4.445-5.928,9.261-12.378,12.78-17.1h0c.494-.667.964-1.3,1.4-1.884h0l1-1.343c.306-.412.595-.8.858-1.151l1.913-2.57,23.254,2.829" transform="translate(-36.85 -51.183)" fill="#d4e3f8" fill-rule="evenodd"/>
          <path id="Fill-1327" d="M134.7,155.052l-.466-.436a1.222,1.222,0,0,1-.374-.878,1.163,1.163,0,0,1,.187-.643,1.2,1.2,0,0,1,1.549-.427l3.228,1.616.249.25,3.266,3.266a1.109,1.109,0,0,1,.312.95l-.1.628a1.336,1.336,0,0,1-.652.95.635.635,0,0,0-.3.72l.287,1.1a1.186,1.186,0,0,1-.552,1.328l-.077.043a1.379,1.379,0,0,0-.7,1.2,1.221,1.221,0,0,0,.019.23,1.226,1.226,0,0,1-.461,1.179l-.412.321a4.159,4.159,0,0,0-.815.873c-1,1.386-2.829,1.309-3.707,1.18a1.772,1.772,0,0,0-.868.072,3.627,3.627,0,0,1-.743-2.878l-.7-.556-1.093-1-1.4-1.28-1.165-1.257a1.006,1.006,0,0,1-.269-.686.992.992,0,0,1,.206-.6,1.006,1.006,0,0,1,1.377-.216l1.146.806-1.16-.959-1.28-1.525a1.057,1.057,0,0,1-.245-.672,1.037,1.037,0,0,1,1.669-.824l1.458,1.1,3.184,1.842a.1.1,0,0,0,.13-.144l-1.794-2.417-1.884-1.794a1.12,1.12,0,0,1,1.492-1.669l1.444,1.209" transform="translate(-59.287 -70.565)" fill="#ffb0b1" fill-rule="evenodd"/>
          <path id="Fill-1328" d="M132.1,175.006l.7.556a3.627,3.627,0,0,0,.743,2.878c-1.832.667-6.283.518-6.283.518l3.75-4.949,1.094,1" transform="translate(-58.507 -80.434)" fill="#ffb0b1" fill-rule="evenodd"/>
          <path id="Fill-1329" d="M31.085,93.728a2.6,2.6,0,0,1,.427-.331,2.649,2.649,0,0,1,1.017-.365,2.351,2.351,0,0,1,2.752,1.861v.014a3.285,3.285,0,0,1,.787,1.707,3.805,3.805,0,0,1-3.433,4.129,3.8,3.8,0,0,1-4.46-3A3.742,3.742,0,0,1,31.085,93.728Zm-8.517,22.343.494,2.01a1.868,1.868,0,0,0,2.278,1.361l.379-.1,11.418-2.935a14.8,14.8,0,0,0,3.477-1.381L53.322,108a3.933,3.933,0,0,0,1.861-2.336l2.182-7.543.384-1.328.077-.427A2.67,2.67,0,0,1,59.331,94.4l.038-.019-.105-.225-2.493-9.275c-.043-.158-.091-.317-.149-.47-1.458-3.856-6.129-7.169-9.927-9.332a26.791,26.791,0,0,0-5.359-2.3c.02.183,4.065,2.419,4.017,21.769h-.024c-.029-.014-.058-.033-.086-.048a22.237,22.237,0,0,1-7.678-7.529c-5.333-8.6-10.373-13.1-13.461-15.28l-.058-.041c-.476-.336.511-1.805-.043-1.853a44.243,44.243,0,0,0-4.651,2.463c-.792.457-1.748,1.01-2.653,1.536a8.527,8.527,0,0,1-2.235.863A14.2,14.2,0,0,0,7.7,78.584C4.708,81.7,2.258,87.158,3.673,96.659a23.806,23.806,0,0,1,.211,4.993c-.475,7.429-1.9,27.915-3.884,40.312H59.264l-.633-10.052L43.3,131.432c.46-.461,5.827-7.578,11.884-15.658l-6.287,4.58c-1.218.892-2.4,1.827-3.568,2.786-8.3,6.843-20.132,10.569-20.132,10.569a16.514,16.514,0,0,0-3.429,1.535,3.927,3.927,0,0,1-4.421,0c-3.035-3.481-5.141-9.543-6.493-14.79l-.186.048S.6,115.151,6.325,109.7a2.491,2.491,0,0,1,1.506-.585,1.08,1.08,0,0,1,.786.331v0a1.106,1.106,0,0,1,.254,1.142s.02.13.053.374a.407.407,0,0,0,.3.182l1.831.187s8.3.892,11.021,2.739a1.851,1.851,0,0,1,.824.969,1.084,1.084,0,0,1-.239.93l-.1.1Z" transform="translate(0 -32.525)" fill="#34d9f4" fill-rule="evenodd"/>
          <path id="Fill-1330" d="M92.331,100.551a.5.5,0,0,1-.489-.409c-3.927-21.729-15.379-27.21-15.494-27.263a.5.5,0,0,1,.413-.9c.489.223,12.032,5.7,16.059,27.991a.5.5,0,0,1-.4.578.492.492,0,0,1-.089.008" transform="translate(-34.967 -33.277)" fill="#424242" fill-rule="evenodd"/>
          <path id="Fill-1332" d="M14.741,153.91l-.186.048s-10.071-5.352-4.345-10.8a2.491,2.491,0,0,1,1.506-.585,1.08,1.08,0,0,1,.786.331v.005a1.1,1.1,0,0,1,.317.772,1.11,1.11,0,0,1-.063.369.513.513,0,0,0-.024.139.374.374,0,0,0,.077.236,95.128,95.128,0,0,0,1.933,9.49" transform="translate(-3.884 -65.885)" fill-rule="evenodd" opacity="0.705"/>
          <path id="Fill-1333" d="M34.169,93.426c.73,2.641,1.332,5.314,1.884,8s1,5.388,1.424,8.1c.377,2.714.7,5.438.921,8.17a80.5,80.5,0,0,1,.211,8.216c-.086-1.368-.112-2.735-.242-4.1-.078-1.365-.225-2.724-.35-4.084-.3-2.717-.616-5.431-1.031-8.133-.38-2.706-.838-5.4-1.307-8.1q-.348-2.021-.736-4.036c-.239-1.347-.512-2.688-.774-4.033" transform="translate(-15.709 -43.236)" fill-rule="evenodd" opacity="0.1"/>
          <path id="Fill-1338" d="M139.087,156.724c.516.247,1.017.507,1.508.8a11.026,11.026,0,0,1,1.4,1,14.882,14.882,0,0,1,1.233,1.185q.59.612,1.13,1.276-.69-.506-1.331-1.065c-.433-.37-.839-.757-1.271-1.111s-.869-.705-1.319-1.041-.912-.674-1.348-1.041" transform="translate(-63.944 -72.401)" fill-rule="evenodd" opacity="0.09"/>
          <path id="Fill-1339" d="M140.955,165.832a14.805,14.805,0,0,1,2.024,1.46,14.652,14.652,0,0,1,1.783,1.745,14.643,14.643,0,0,1-2.024-1.46,14.852,14.852,0,0,1-1.783-1.745" transform="translate(-64.803 -76.675)" fill-rule="evenodd" opacity="0.09"/>
          <path id="Fill-1340" d="M134.009,168.018q.739.4,1.439.853c.466.3.933.607,1.372.948a26.217,26.217,0,0,1,2.47,2.246,25.972,25.972,0,0,1-2.7-1.95c-.433-.345-.889-.66-1.318-1.011s-.857-.7-1.266-1.086" transform="translate(-61.609 -77.68)" fill-rule="evenodd" opacity="0.09"/>
          <path id="Fill-1341" d="M137.345,176.883c.09.526.126,1.015.232,1.491a5.064,5.064,0,0,0,.514,1.387,1.689,1.689,0,0,1-.575-.558,2.431,2.431,0,0,1-.3-.75,2.726,2.726,0,0,1,.132-1.569" transform="translate(-63.055 -81.756)" fill-rule="evenodd" opacity="0.09"/>
          <path id="Fill-1344" d="M77.974,113.169l-1,1.343h0c-.437.589-.907,1.218-1.4,1.884h0c-3.52,4.724-8.335,11.174-12.78,17.1l-6.287,4.58c-1.218.892-2.4,1.827-3.568,2.786-8.3,6.843-20.132,10.569-20.132,10.569a16.515,16.515,0,0,0-3.429,1.535,3.926,3.926,0,0,1-4.421,0c-3.036-3.481-5.142-9.543-6.494-14.79a95.127,95.127,0,0,1-1.933-9.49.407.407,0,0,0,.3.182l1.831.187s8.3.892,11.021,2.739l.489,2,.494,2.01a1.868,1.868,0,0,0,2.278,1.361l.379-.1,11.418-2.935a14.8,14.8,0,0,0,3.477-1.381l12.709-7.035a3.933,3.933,0,0,0,1.861-2.336l2.182-7.543.384-1.329.077-.427a2.67,2.67,0,0,1,1.506-1.957l.038-.019.585-.269a2.082,2.082,0,0,0,.336-.186l4.513-3.007a1.773,1.773,0,0,1,2.048.058l4.388,3.313c-.264.355-.552.739-.858,1.151" transform="translate(-7.594 -50.248)" fill="#ffb0b1" fill-rule="evenodd"/>
          <path id="Fill-1345" d="M122.014,115.338c-.343-.249-.67-.515-1.005-.772a2.5,2.5,0,0,0-1.036-.608,2.136,2.136,0,0,0-1.157.011l-1.182.417c-.8.272-1.6.544-2.4.788s-1.614.491-2.436.694c.771-.35,1.555-.66,2.342-.964s1.58-.589,2.376-.87c.4-.135.786-.274,1.21-.4a2.276,2.276,0,0,1,1.337.056,2.7,2.7,0,0,1,1.071.745c.294.3.6.6.885.908" transform="translate(-51.856 -52.454)" fill-rule="evenodd" opacity="0.1"/>
          <path id="Fill-1346" d="M110.572,121.537c.75-.52,1.52-1,2.294-1.484s1.558-.941,2.344-1.4l1.187-.672a4.49,4.49,0,0,1,.633-.315,2.206,2.206,0,0,1,.715-.133,2.329,2.329,0,0,1,1.356.4c.37.266.747.521,1.111.8-.824-.373-1.575-1.034-2.452-.912a2.309,2.309,0,0,0-.613.152,4.228,4.228,0,0,0-.574.316l-1.178.689c-.79.449-1.581.9-2.387,1.323s-1.61.85-2.437,1.237" transform="translate(-50.834 -54.296)" fill-rule="evenodd" opacity="0.1"/>
          <path id="Fill-1347" d="M121.912,123.242a14.621,14.621,0,0,1-2.223,1.089,14.456,14.456,0,0,1-2.362.743,14.4,14.4,0,0,1,2.224-1.089,14.555,14.555,0,0,1,2.361-.743" transform="translate(-53.94 -56.928)" fill-rule="evenodd" opacity="0.1"/>
          <path id="Fill-1349" d="M51.546,92.094a.5.5,0,0,1-.488-.4c-1.542-8.019-5.863-17.914-5.907-18.013-1.781-3.416-2.2-5.905-1.229-7.367a3.218,3.218,0,0,1,2.79-1.261.5.5,0,0,1-.079.991,2.238,2.238,0,0,0-1.887.827c-.515.783-.707,2.526,1.3,6.38.058.13,4.423,10.125,5.987,18.256a.5.5,0,0,1-.395.582.51.51,0,0,1-.095.009" transform="translate(-19.958 -30.088)" fill="#424242" fill-rule="evenodd"/>
          <path id="Fill-1350" d="M60.011,116.845a4.007,4.007,0,1,1-4.458-3,3.809,3.809,0,0,1,4.458,3" transform="translate(-23.946 -52.58)" fill="#a5a5a5" fill-rule="evenodd"/>
          <path id="Fill-1351" d="M61.139,114.64a2.472,2.472,0,1,1-2.752-1.86,2.353,2.353,0,0,1,2.752,1.86" transform="translate(-25.859 -52.089)" fill="#c4c4c4" fill-rule="evenodd"/>
          <path id="Fill-1352" d="M52.37,5.4,50,14.753a2.678,2.678,0,1,0-1.309,5.17l-1.369,5.412a7.459,7.459,0,0,0,.609,5.27,7.375,7.375,0,0,0,1.026,1.5l-1,3.942c0,.024-.015.048-.019.072a7.013,7.013,0,0,1-.844,2.009h0a4.681,4.681,0,0,1-2.709,2.068,5.072,5.072,0,0,0,.1,1.894c3.088,2.182,8.128,6.681,13.461,15.28a22.237,22.237,0,0,0,7.678,7.529c.029.015.057.034.086.048h.024c.048-19.35-3.765-21.964-4-22.108a.016.016,0,0,0-.01,0l.254-.988,1.53-6.057a7.46,7.46,0,0,0,4.657-5.179l1.242-4.9,3.8-15.034L52.37,5.4" transform="translate(-20.383 -2.483)" fill="#efa1a2" fill-rule="evenodd"/>
          <path id="Fill-1353" d="M69.381,6.292a23.48,23.48,0,0,1-9.234,6.026c-2.3.8-6.821,2.169-9.1.479-1.886-1.4-.223-6.369.945-8.1C55.11.087,60.369-1.252,65.465,1.226c1.5.728,5.652,2.6,3.916,5.066" transform="translate(-23.077 0)" fill="#191e27" fill-rule="evenodd"/>
          <path id="Fill-1354" d="M83.727,6.607c0,3.618,1.621,5.732,3.4,8.75a11.12,11.12,0,0,1,1.355,3.317c.189.891-.021,2.252.559,2.994,1.58-.776,2.268-3.867,2.869-5.411a10.757,10.757,0,0,0,.635-7.326,6.464,6.464,0,0,0-5.079-4.594c-2-.277-4.033.836-3.734,2.27" transform="translate(-38.479 -1.974)" fill="#191e27" fill-rule="evenodd"/>
          <path id="Fill-1355" d="M45,32.212c.895.817.192,2.846.1,3.895-.2,2.358,3.559,15.131,3.769,16.014.256,1.072,2.137,2.812,1.488,3.874-.94,1.54-10.472-1.313-11.988-1.976-1.732-.756-1.846-1.607-1.942-3.6-.225-4.653.059-9.1,2.428-13.145a8.4,8.4,0,0,1,3.9-3.676A9.572,9.572,0,0,0,45,32.212" transform="translate(-16.719 -14.898)" fill="#191e27" fill-rule="evenodd"/>
        </g>
        <g id="Group-2" transform="translate(64.105)">
          <path id="Fill-1357" d="M57.059,2.848A9.76,9.76,0,0,0,48.415.361c-5.609,1.019-8.972,6.075-9.755,11.5a29.928,29.928,0,0,0,.193,7.787c.17,1.546.486,3.072-.485,4.4-.89,1.217-2.008,1.756-2.5,3.333a8.889,8.889,0,0,0-.138,4.222c.216,1.074,1.211,2.552.952,3.7-.159.705-.832,1-1.287,1.494-2.411,2.627-2.305,6.981-.985,10.092,2.283,5.379,9.8,8.185,15.166,8.867a20.208,20.208,0,0,0,9.073-.665,19.261,19.261,0,0,0,6.027-3.3,7.49,7.49,0,0,1,5.189-1.7c2.608.261,4.91.821,6.992-1.418a7.3,7.3,0,0,0,.589-9.019c-.989-1.517-3.11-2.558-2.9-4.481.214-1.994,1.7-3.51,1.32-5.628-.456-2.525-2.646-3.882-3.413-6.116-.486-1.417.078-3.521.269-5.089.607-5.013.789-11.752-3.124-15.6C67.72.913,66.19-.122,63.543.012a6.572,6.572,0,0,0-4.488,1.621,3.5,3.5,0,0,1-2,1.215" transform="translate(-15.393 0)" fill="#191e27" fill-rule="evenodd"/>
          <path id="Fill-1366" d="M92.586,78.774a13.087,13.087,0,0,1,2.538.873A30.665,30.665,0,0,1,98.01,81.1l-3.026-6.421a51.707,51.707,0,0,1-5.568-4.33.1.1,0,0,0-.024-.02c-.537-.484-.83-.771-.83-.771l1.319,4.1a11.3,11.3,0,0,1,.369,5.477c-.753,4.215-2.158,12.536-2.9,19.72l.7.072a135.506,135.506,0,0,1,8.69-13.006C97.515,84.86,98.01,84.2,98.01,84.2l-2.091-2.091-3.333-3.338" transform="translate(-40.158 -32.158)" fill="#eaeaea" fill-rule="evenodd"/>
          <path id="Fill-1367" d="M112.552,130.244l-1.621-19.336c-3.059-28.534-8.489-27.7-8.489-27.7a30.784,30.784,0,0,1-7.352-3.9L97.5,85.382a25.829,25.829,0,0,0-2.675-1.345,13.65,13.65,0,0,0-2.662-.8l3.333,3.338,2.091,2.091s-.494.658-1.276,1.717a135.507,135.507,0,0,0-8.69,13.006l-.7-.072a77.778,77.778,0,0,0-.5,7.807l7.707,27.431-5.765,2.992V156.8H111.9l.681-25.421a9.986,9.986,0,0,0-.033-1.137Z" transform="translate(-40.331 -36.882)" fill="#fff" fill-rule="evenodd"/>
          <path id="Fill-1368" d="M39.531,156.864c-1.712-1.707-8.354-7.021-8.354-7.021-.83-1.285-1.659-2.417-2.369-3.324l2.369-1.372,8.282-4.781L51.2,133.586l4.172-2.407,3.213-1.856,9.059,32.246-5.765,2.992-4.46,2.316-2.666,1.386-3.083-2.3-1.736-3.137a.137.137,0,0,1,.2-.177l4.959,3.707a.908.908,0,0,0,.561.187.94.94,0,0,0,.643-1.626l-5.788-5.4a2.47,2.47,0,0,0-1.688-.667H44.629a3.91,3.91,0,0,1-1.29-.221l-4.892-1.735a1.827,1.827,0,0,1,1.084-.029" transform="translate(-13.244 -59.89)" fill="#d4e3f8" fill-rule="evenodd"/>
          <path id="Fill-1369" d="M68.464,107.191,64.291,109.6c-.331-.8-.652-1.573-.954-2.335-5.8-14.55-6.5-23.7-5.855-29.1a48.583,48.583,0,0,0,2.254,4.527l.4.7a32.035,32.035,0,0,0,7.1,8.8A72.605,72.605,0,0,0,73.255,83.4l1.486-2.853a23.125,23.125,0,0,0,1.319-3.4,11.3,11.3,0,0,1,.369,5.477c-.753,4.215-2.158,12.536-2.9,19.72a77.94,77.94,0,0,0-.5,7.807l-1.352-4.815-3.213,1.856" transform="translate(-26.337 -35.675)" fill="#009ef5" fill-rule="evenodd"/>
          <path id="Fill-1370" d="M95.62,194.547V209.8H84.24l1.344-10.244,10.036-5.006" transform="translate(-46.986 -89.877)" fill="#009ef5" fill-rule="evenodd"/>
          <path id="Fill-1373" d="M42.543,187.466l-3.554-1.952c1.573-3.76,3.136-4.872,4.139-5.16l4.892,1.735a3.91,3.91,0,0,0,1.29.221H53.5a2.47,2.47,0,0,1,1.688.667l5.788,5.4a.94.94,0,0,1-.643,1.626.908.908,0,0,1-.561-.187l-4.959-3.707a.137.137,0,0,0-.2.177l1.736,3.137,3.083,2.3,1.084.806a1.037,1.037,0,0,1,.384.585l.115.479a1.025,1.025,0,0,1-.13.777,1.027,1.027,0,0,1-1.376.346l-.058-.034a.954.954,0,0,1,.038.259.936.936,0,0,1-.739.911l-.052.01a.844.844,0,0,1-.331.009l-.82-.124-.086.326a.8.8,0,0,1-.5.552.78.78,0,0,1-.283.052,1,1,0,0,1-.125-.009L55.5,196.5a.27.27,0,0,0-.287.144.765.765,0,0,1-.7.432.458.458,0,0,1-.082,0l-4.412-.461-.393-.043a1.054,1.054,0,0,1-.647-.316,6.4,6.4,0,0,1-1.194-1.808L45.742,189.8a2.43,2.43,0,0,0-1.064-1.16l-2.134-1.17" transform="translate(-17.925 -83.352)" fill="#ffb0b1" fill-rule="evenodd"/>
          <path id="Fill-1374" d="M55.437,210.362l1.17,6.647H35.669l12.824-6.661,4.412.461a.456.456,0,0,0,.082,0,.765.765,0,0,0,.7-.432.27.27,0,0,1,.287-.144l1.06.168a1.008,1.008,0,0,0,.125.009.78.78,0,0,0,.283-.052" transform="translate(-16.399 -97.088)" fill="#fff" fill-rule="evenodd"/>
          <path id="Fill-1375" d="M45.41,85.594l3.678-4.358c-1.592-.921-6.226,1.2-6.226,1.2,1.156-2.891,3.369-8.137,4.318-10.424a22.23,22.23,0,0,1,2.806-2.949l0,0c1.808-1.4,3.036-2.345,3.127-2.417-.1.116-1.688,1.981-2.249,6.7-.643,5.4.053,14.545,5.855,29.1l-1.031.412L46.811,92.02l-3.242-4.158" transform="translate(-19.713 -30.822)" fill="#eaeaea" fill-rule="evenodd"/>
          <path id="Fill-1379" d="M48.675,85.743,45.03,90.256a3.864,3.864,0,0,0-3.333-2.22,22.286,22.286,0,0,1,4.939-11.457c-.949,2.287-3.078,7.414-4.235,10.305,0,0,4.681-2.062,6.273-1.141" transform="translate(-19.17 -35.375)" fill="#fff" fill-rule="evenodd"/>
          <path id="Fill-1380" d="M15.564,121.291c-1.151-1.482-1.99-2.368-1.99-2.368,1.463-.846,3.581-8.156,3.581-8.156s-1.591,9.006-1.591,10.525l10.651-6.152,11.739-6.781c-.331-.8-.652-1.573-.954-2.335l-1.031.412L27.1,95.611,23.9,91.7l1.962-2.426a3.864,3.864,0,0,0-3.333-2.22A22.286,22.286,0,0,1,27.467,75.6c.278-.672.456-1.1.475-1.151L19.9,80.667a17.236,17.236,0,0,0-6.982,4.388A13.4,13.4,0,0,0,9.5,91.52L6.414,98.685a8.837,8.837,0,0,0-.72,3.5,10.75,10.75,0,0,1-.393,2.878,10.748,10.748,0,0,1-1.146,2.666L.7,113.47a4.839,4.839,0,0,0-.628,3.318l.269,1.568a6.6,6.6,0,0,1,.1,1.151v1.917a5.3,5.3,0,0,0,1.52,3.713l17.269,17.5a38.986,38.986,0,0,1,1.836-5.818c1.573-3.76,3.136-4.872,4.139-5.16a1.827,1.827,0,0,1,1.084-.029c-1.712-1.707-8.354-7.021-8.354-7.021-.83-1.285-1.659-2.417-2.369-3.324Z" transform="translate(0 -34.662)" fill="#fff" fill-rule="evenodd"/>
          <path id="Fill-1388" d="M34.515,105.654a.5.5,0,0,1-.486-.394c-.041-.191-.974-4.7.919-7.035a3.781,3.781,0,0,1,3.1-1.367,3.97,3.97,0,0,1,2.674,1.1c1.438,1.3,2.233,3.534,2.363,6.654a.5.5,0,1,1-.994.042c-.116-2.785-.811-4.837-2.011-5.936a3.016,3.016,0,0,0-2.005-.867,2.821,2.821,0,0,0-2.356,1c-1.6,1.974-.728,6.16-.72,6.2a.5.5,0,0,1-.383.59.464.464,0,0,1-.1.012" transform="translate(-15.523 -44.733)" fill="#191e27" fill-rule="evenodd"/>
          <path id="Fill-1391" d="M97.443,93.471l-.035,0a.5.5,0,0,1-.461-.531,32.522,32.522,0,0,0-8.538-24.467.5.5,0,0,1,.684-.722,33.549,33.549,0,0,1,8.845,25.259.5.5,0,0,1-.5.462" transform="translate(-40.574 -31.253)" fill="#191e27" fill-rule="evenodd"/>
          <path id="Fill-1393" d="M115.916,100.285c.556,5.515,1.058,11.035,1.552,16.555l1.413,16.572a17.254,17.254,0,0,1-.283,4.2c-.274,1.384-.7,2.7-.993,4.042a22.669,22.669,0,0,0-.5,4.079c-.051,1.371.077,2.744.152,4.132l.5,8.3.448,8.3-.691-8.285-.639-8.289a38.3,38.3,0,0,1-.2-4.17,23.153,23.153,0,0,1,.489-4.162c.292-1.368.712-2.7.969-4.035a16.876,16.876,0,0,0,.253-4.08l-1.3-16.569c-.414-5.526-.82-11.054-1.172-16.585" transform="translate(-53.291 -46.541)" fill-rule="evenodd" opacity="0.1"/>
          <path id="Fill-1397" d="M40.92,83.541h-.033a.5.5,0,0,1-.463-.529c.333-5,3.489-9.871,6.078-13.076a45.871,45.871,0,0,1,5.565-5.8.5.5,0,0,1,.639.762c-.107.09-10.683,9.074-11.29,18.177a.5.5,0,0,1-.5.464" transform="translate(-18.584 -29.583)" fill="#191e27" fill-rule="evenodd"/>
          <path id="Fill-1398" d="M7.675,154.118a10.308,10.308,0,0,1,2.4-.364,13.669,13.669,0,0,1,2.432.106,13.006,13.006,0,0,1,2.377.532,10.955,10.955,0,0,1,2.218.984c-.78-.219-1.543-.444-2.32-.609s-1.554-.316-2.339-.414-1.575-.173-2.369-.212-1.592-.053-2.4-.023" transform="translate(-3.529 -70.985)" fill-rule="evenodd" opacity="0.1"/>
          <path id="Fill-1401" d="M55.743,35.338a2.681,2.681,0,1,0-2.681,2.68,2.681,2.681,0,0,0,2.681-2.68" transform="translate(-23.162 -15.014)" fill="#ea9498" fill-rule="evenodd"/>
          <path id="Fill-1402" d="M55.824,17.469l0,17.288a10.747,10.747,0,0,0,21.494,0l0-17.293H55.824" transform="translate(-25.662 -8.031)" fill="#ffb0b1" fill-rule="evenodd"/>
          <path id="Fill-1403" d="M52.272,22.036c1.6.664,4.158-.666,5.5-1.571a22.294,22.294,0,0,0,2.647-1.948c.422-.387.833-.989,1.3-1.189A32.011,32.011,0,0,0,59.828,20.1c.71.551,1.894-.243,2.617-.575a17.349,17.349,0,0,0,4.485-2.9c1.05-.957,1.984-1.981,2.948-3-.934,2.03.264,4.538,1.685,6.068.023-.44.005-.91.037-1.346.937,1.914,2.076,3.439,4.238,4.1.9.274,1.577.452,1.873-.322.659-1.721-.538-4.665-1.082-6.223-.832-2.384-2.129-4.491-4.573-5.432-3.267-1.259-7.163-.269-10.438.51s-9.3,2.034-10.076,6.051a7.806,7.806,0,0,0,.728,5.011" transform="translate(-23.639 -4.534)" fill="#191e27" fill-rule="evenodd"/>
          <path id="Fill-1404" d="M76.23,70.971a23.1,23.1,0,0,1-1.319,3.4c-.153.331-.317.667-.489,1-.317.623-.652,1.242-1,1.851A72.6,72.6,0,0,1,67.41,86.02a32.035,32.035,0,0,1-7.1-8.8c-.139-.24-.273-.475-.4-.7a48.548,48.548,0,0,1-2.254-4.527c.561-4.719,2.148-6.584,2.249-6.7l0,0V63.71a10.677,10.677,0,0,0,5.208,2.806c.005,0,.015,0,.019,0,.178.038.36.077.542.1a8.206,8.206,0,0,0,.969.115l.225.014c.178.01.36.015.542.015a10.69,10.69,0,0,0,7.5-3.055v3.161l1.319,4.1" transform="translate(-26.505 -29.443)" fill="#efa1a2" fill-rule="evenodd"/>
          <g id="Group_6969" data-name="Group 6969" transform="translate(53.1 61.823)">
            <path id="Fill-1364" d="M104.054,116.349a3.117,3.117,0,1,1-2.7-1.478,1.922,1.922,0,1,0,2.714,1.75,1.673,1.673,0,0,0-.019-.273" transform="translate(-98.285 -114.871)" fill="#a5a5a5" fill-rule="evenodd"/>
            <path id="Fill-1365" d="M105.707,116.349a1.674,1.674,0,0,1,.019.273,1.923,1.923,0,1,1-2.714-1.75h.043a3.114,3.114,0,0,1,2.652,1.478" transform="translate(-99.938 -114.867)" fill="#c4c4c4" fill-rule="evenodd"/>
          </g>
        </g>
      </g>
      <path id="Fill-1377" d="M164.432,202.593l-12.824,6.661-3.937-15.888,3.894,3.947s3.16.105,5.39-3.866l2.134,1.17a2.43,2.43,0,0,1,1.064,1.16l2.043,4.647a6.4,6.4,0,0,0,1.194,1.808,1.054,1.054,0,0,0,.647.316l.393.043" transform="translate(-68.202 -89.334)" fill="#d4e3f8" fill-rule="evenodd"/>
      <path id="Fill-1381" d="M156.716,189.9l3.554,1.952c-2.23,3.971-5.39,3.866-5.39,3.866a38.986,38.986,0,0,1,1.836-5.818" transform="translate(-71.514 -87.742)" fill="#999" fill-rule="evenodd"/>
    </g>
  </g>
</svg>
