<svg xmlns="http://www.w3.org/2000/svg" width="19" height="23" viewBox="0 0 19 23"><g transform="translate(-0.125 0.336)"><g transform="translate(7.7 4.382)"><path d="M196.548.564a1.955,1.955,0,0,1,0,2.722,1.854,1.854,0,0,1-2.663,0,1.955,1.955,0,0,1,0-2.722,1.854,1.854,0,0,1,2.663,0" transform="translate(-193.334 0)" fill="#777"/><path d="M196.548,193.9a1.955,1.955,0,0,1,0,2.722,1.854,1.854,0,0,1-2.663,0,1.955,1.955,0,0,1,0-2.722,1.854,1.854,0,0,1,2.663,0" transform="translate(-193.334 -187.602)" fill="#777"/><path d="M196.62,387.23a1.925,1.925,0,1,1-2.722,0,1.925,1.925,0,0,1,2.722,0" transform="translate(-193.334 -375.202)" fill="#777"/></g><rect width="19" height="23" transform="translate(0.125 -0.336)" fill="none"/></g></svg>