<svg xmlns="http://www.w3.org/2000/svg" width="48" height="48" viewBox="0 0 48 48"><g transform="translate(3774 -2971)"><g transform="translate(-1571.87 779.261)"><rect width="31" height="40" rx="3" transform="translate(-2193.13 2195.74)" fill="#d3edf5"/><g transform="translate(0.026 11.376)"><g transform="translate(-2186.156 2201.363)"><path d="M10.188,4h8.985V5.8H10.188Zm0,3.594h5.391v1.8H10.188Zm0,5.391h8.985v1.8H10.188Zm0,3.594h5.391v1.8H10.188ZM3,4H8.391V9.391H3ZM4.8,5.8v1.8h1.8V5.8ZM3,12.985H8.391v5.391H3Zm1.8,1.8v1.8h1.8v-1.8Z" transform="translate(-3 -4)" fill="#04a6d6"/></g></g><path d="M3,0H28a3,3,0,0,1,3,3v7a0,0,0,0,1,0,0H0a0,0,0,0,1,0,0V3A3,3,0,0,1,3,0Z" transform="translate(-2193.13 2195.739)" fill="#04a6d6"/><g transform="translate(-2186.13 2196.739)"><path d="M0,0H10V7.48H0Z" fill="none"/><path d="M4.333,3.906l2.5,3.984L8.358,5.46h1.809V4.891H7.809L6.833,6.445l-2.5-3.984L2.809,4.891H1V5.46H3.358Z" transform="translate(-0.583 -1.436)" fill="#d3edf5"/></g></g><rect width="48" height="48" transform="translate(-3774 2971)" fill="none"/></g></svg>