<svg xmlns="http://www.w3.org/2000/svg" width="16" height="16" viewBox="0 0 16 16"><path d="M0,0H16V16H0Z" fill="none"/><path d="M14.912,11.881v2.34a.662.662,0,0,1-.615.66c-.289.02-.525.03-.708.03A10.588,10.588,0,0,1,3,4.324q0-.274.03-.708A.662.662,0,0,1,3.691,3h2.34a.331.331,0,0,1,.33.3c.015.152.029.273.042.365a9.2,9.2,0,0,0,.8,2.648.3.3,0,0,1-.1.375L5.677,7.707a8.634,8.634,0,0,0,4.529,4.529l1.019-1.425a.306.306,0,0,1,.379-.1,9.2,9.2,0,0,0,2.647.8c.092.013.213.028.364.042a.331.331,0,0,1,.3.33Z" transform="translate(-0.956 -0.956)" fill="#151414"/></svg>