<svg xmlns="http://www.w3.org/2000/svg" width="36" height="36" viewBox="0 0 36 36"><g transform="translate(7338 -13462)"><g transform="translate(-7337.333 13463.333)"><path d="M24.931,16.3a7.242,7.242,0,0,1-4.821,1.864,7.082,7.082,0,0,1-1.16-.1c-.04-.034-.086-.06-.127-.094a11.614,11.614,0,0,1,4.2,8.942,1.458,1.458,0,0,1-1.457,1.458h8.749a1.458,1.458,0,0,0,1.457-1.458A11.658,11.658,0,0,0,24.931,16.3Z" transform="translate(1.558 1.028)" fill="#b3d8e3"/><path d="M12.624,19.248a7.291,7.291,0,1,1,7.291-7.291A7.291,7.291,0,0,1,12.624,19.248Z" transform="translate(0.374)" fill="#d8d8ff"/><path d="M12.624,19.248a7.291,7.291,0,1,1,7.291-7.291A7.291,7.291,0,0,1,12.624,19.248Z" transform="translate(0.374)" fill="#008db7"/><path d="M17.82,16.3a7.173,7.173,0,0,1-9.646,0,11.658,11.658,0,0,0-6.84,10.612h0a1.458,1.458,0,0,0,1.458,1.457H23.206a1.458,1.458,0,0,0,1.457-1.458A11.658,11.658,0,0,0,17.82,16.3Z" transform="translate(0 1.028)" fill="#04a6d6"/><path d="M20.374,4.667A7.225,7.225,0,0,0,16,6.158a7.284,7.284,0,0,1,1.088,1.016c.092.1.179.212.265.321a7.433,7.433,0,0,1,.865,1.394c.062.133.124.264.178.4a7.123,7.123,0,0,1,.339,1.092c.02.089.033.18.05.271a6.589,6.589,0,0,1,0,2.643c-.012.064-.019.13-.033.193a7.088,7.088,0,0,1-.331,1.063c-.053.138-.1.275-.166.409a7.671,7.671,0,0,1-1.8,2.425,11.652,11.652,0,0,1,2.768,1.765,7.081,7.081,0,0,0,1.16.1,7.291,7.291,0,1,0,0-14.581Z" transform="translate(1.294)" fill="#9dc3ce"/></g><rect width="36" height="36" transform="translate(-7338 13462)" fill="none"/></g></svg>