<svg xmlns="http://www.w3.org/2000/svg" width="24" height="24" viewBox="0 0 24 24"><g transform="translate(5554 -15898)"><rect width="24" height="24" transform="translate(-5554 15898)" fill="none"/><g transform="translate(-5555.5 15901)"><path d="M16.3,0H6.97c-.26,0-.47.211-.47.619V17.679A.484.484,0,0,0,6.97,18H19.851a.484.484,0,0,0,.47-.321V4.171c0-.224-.03-.3-.083-.349L16.5.083A.284.284,0,0,0,16.3,0Z" transform="translate(0)" fill="#e9e9e0"/><path d="M37.5.151V3.979h3.828Z" transform="translate(-21.055 -0.102)" fill="#d9d7ca"/><path d="M18.1,15.441h0a.519.519,0,0,1-.312-.105.774.774,0,0,1-.36-.724c.059-.526.709-1.076,1.933-1.637A21.684,21.684,0,0,0,20.58,9.5a3.19,3.19,0,0,1-.407-2.146.62.62,0,0,1,.366-.392,1.586,1.586,0,0,1,.328-.056c.163,0,.306.21.407.339s.311.379-.12,2.2A10.322,10.322,0,0,0,22.8,11.887a6.285,6.285,0,0,1,1.085-.116c.506,0,.812.118.937.361a.654.654,0,0,1-.126.7.859.859,0,0,1-.717.385,2.148,2.148,0,0,1-1.36-.738,15.478,15.478,0,0,0-2.852.912,9.166,9.166,0,0,1-.77,1.373C18.663,15.225,18.378,15.441,18.1,15.441Zm.86-1.656c-.69.388-.972.707-.992.886,0,.03-.012.108.139.224C18.15,14.88,18.432,14.752,18.955,13.785ZM23.36,12.35c.263.2.328.3.5.3a.487.487,0,0,0,.391-.142.511.511,0,0,0,.074-.134c-.04-.021-.092-.064-.38-.064A4.723,4.723,0,0,0,23.36,12.35Zm-2.413-2.126a23.029,23.029,0,0,1-.864,2.443,16.14,16.14,0,0,1,2.1-.653A11.057,11.057,0,0,1,20.947,10.224Zm-.2-2.734a.775.775,0,0,0,.031,1.039C21.089,7.846,20.765,7.486,20.751,7.491Z" transform="translate(-7.429 -4.676)" fill="#cc4b4c"/><path d="M19.851,44.492H6.97a.471.471,0,0,1-.47-.473V39H20.321v5.019A.471.471,0,0,1,19.851,44.492Z" transform="translate(0 -26.492)" fill="#cc4b4c"/><g transform="translate(9.45 13.776)"><path d="M16.274,46.179h-.53V42.924h.936a1.314,1.314,0,0,1,.411.066,1.117,1.117,0,0,1,.364.2,1.037,1.037,0,0,1,.261.32.887.887,0,0,1,.1.422,1.154,1.154,0,0,1-.084.448.937.937,0,0,1-.234.338,1.055,1.055,0,0,1-.362.212,1.393,1.393,0,0,1-.468.075h-.393v1.175Zm0-2.853v1.29h.486a.577.577,0,0,0,.192-.033.484.484,0,0,0,.174-.108.529.529,0,0,0,.128-.21.993.993,0,0,0,.048-.333.9.9,0,0,0-.022-.183.529.529,0,0,0-.09-.2A.535.535,0,0,0,17,43.39a.714.714,0,0,0-.327-.064h-.4Z" transform="translate(-15.744 -42.924)" fill="#fff"/><path d="M26.712,44.461a2.391,2.391,0,0,1-.086.687,1.707,1.707,0,0,1-.219.477,1.123,1.123,0,0,1-.3.3,1.5,1.5,0,0,1-.32.166,1.323,1.323,0,0,1-.283.071,1.882,1.882,0,0,1-.19.015H24.084V42.924h.98a1.863,1.863,0,0,1,.722.13,1.5,1.5,0,0,1,.517.347,1.423,1.423,0,0,1,.307.492A1.63,1.63,0,0,1,26.712,44.461ZM25.14,45.79a.877.877,0,0,0,.777-.344,1.748,1.748,0,0,0,.238-1,1.691,1.691,0,0,0-.048-.4.86.86,0,0,0-.188-.36.99.99,0,0,0-.378-.261,1.626,1.626,0,0,0-.618-.1h-.309V45.79h.526Z" transform="translate(-21.39 -42.924)" fill="#fff"/><path d="M35.137,43.326v1.025H36.5v.362h-1.36v1.466H34.6V42.924h2.036v.4Z" transform="translate(-28.508 -42.924)" fill="#fff"/></g></g></g></svg>