<svg xmlns="http://www.w3.org/2000/svg" width="24" height="24" viewBox="0 0 24 24"><g transform="translate(4477 -1716)"><g transform="translate(-4475 1718)"><path d="M1.173,1.173h3.52V0H0V4.693H1.173Zm0,0" fill="#fff"/><path d="M392,0V1.173h3.52v3.52h1.173V0Zm0,0" transform="translate(-376.693)" fill="#fff"/><path d="M395.52,395.52H392v1.173h4.693V392H395.52Zm0,0" transform="translate(-376.693 -376.693)" fill="#fff"/><path d="M1.173,392H0v4.693H4.693V395.52H1.173Zm0,0" transform="translate(0 -376.693)" fill="#fff"/><g transform="translate(2.385 2.346)" opacity="0.707"><path d="M61,60v5.866h5.866v-3.52h1.173V61.173H66.866V60Zm4.693,4.693h-3.52v-3.52h3.52Zm0,0" transform="translate(-61 -60)" fill="#fff"/><path d="M278.039,277.039v-5.866h-2.346V270H274.52v1.173H271v1.173h1.173v1.173H271v1.173h1.173v2.346Zm-4.693-4.693h3.52v3.52h-3.52Zm0,0" transform="translate(-262.81 -261.81)" fill="#fff"/><path d="M64.52,241.173h2.346V240H61v1.173h2.346v1.173H62.173v1.173h1.173v2.346H62.173v1.173h1.173v1.173h5.866v-1.173H68.039v-1.173H66.866v1.173H64.52v-1.173h1.173v-1.173H64.52Zm0,0" transform="translate(-61 -232.983)" fill="#fff"/><path d="M121,120h1.173v1.173H121Zm0,0" transform="translate(-118.657 -117.657)" fill="#fff"/><path d="M361,120h1.173v1.173H361Zm0,0" transform="translate(-349.287 -117.657)" fill="#fff"/><path d="M304.52,65.866h2.346V60H301v5.866h2.346v1.173h1.173Zm-2.346-1.173v-3.52h3.52v3.52Zm0,0" transform="translate(-291.637 -60)" fill="#fff"/><path d="M393.346,241.173V240H391v1.173Zm0,0" transform="translate(-378.117 -232.972)" fill="#fff"/><path d="M361,360h1.173v1.173H361Zm0,0" transform="translate(-349.287 -348.287)" fill="#fff"/><path d="M241,330h1.173v1.173H241Zm0,0" transform="translate(-233.972 -319.458)" fill="#fff"/><path d="M181,302.346h1.173V300H181Zm0,0" transform="translate(-176.315 -290.631)" fill="#fff"/><path d="M211,270h1.173v1.173H211Zm0,0" transform="translate(-205.143 -261.801)" fill="#fff"/><path d="M62.173,330H61v2.346h1.173Zm0,0" transform="translate(-61 -319.46)" fill="#fff"/><path d="M61,420h1.173v1.173H61Zm0,0" transform="translate(-61 -405.944)" fill="#fff"/><path d="M241,60h1.173v1.173H241Zm0,0" transform="translate(-233.972 -60)" fill="#fff"/><path d="M241,122.346h1.173V120H241Zm0,0" transform="translate(-233.972 -117.658)" fill="#fff"/><path d="M242.173,211.173V210H241v2.346h4.693v-1.173Zm0,0" transform="translate(-233.976 -204.144)" fill="#fff"/></g></g><rect width="24" height="24" transform="translate(-4477 1716)" fill="none"/></g></svg>