<svg width="24" height="25" viewBox="0 0 24 25" fill="none" xmlns="http://www.w3.org/2000/svg">
<path d="M10 11.5H7.101L7.102 11.491C7.23257 10.8516 7.48813 10.2443 7.854 9.70399C8.39845 8.9018 9.16215 8.27315 10.054 7.89299C10.356 7.76499 10.671 7.66699 10.992 7.60199C11.6579 7.46698 12.3441 7.46698 13.01 7.60199C13.967 7.79808 14.8451 8.2714 15.535 8.96299L16.951 7.55099C16.3128 6.91262 15.5578 6.40303 14.727 6.04999C14.3033 5.87062 13.8628 5.73394 13.412 5.64199C12.4818 5.453 11.5232 5.453 10.593 5.64199C10.1419 5.73432 9.70101 5.87133 9.277 6.05099C8.02753 6.58109 6.95793 7.46108 6.197 8.58499C5.68489 9.34284 5.32676 10.194 5.143 11.09C5.115 11.225 5.1 11.363 5.08 11.5H2L6 15.5L10 11.5ZM14 13.5H16.899L16.898 13.508C16.6367 14.7897 15.8812 15.9171 14.795 16.646C14.2548 17.0122 13.6475 17.2677 13.008 17.398C12.3424 17.533 11.6566 17.533 10.991 17.398C10.3516 17.2674 9.74435 17.0119 9.204 16.646C8.93862 16.4665 8.69085 16.2622 8.464 16.036L7.05 17.45C7.68851 18.0882 8.44392 18.5974 9.275 18.95C9.699 19.13 10.142 19.267 10.59 19.358C11.5198 19.5471 12.4782 19.5471 13.408 19.358C15.2005 18.9859 16.7773 17.9294 17.803 16.413C18.3146 15.6557 18.6724 14.8053 18.856 13.91C18.883 13.775 18.899 13.637 18.919 13.5H22L18 9.49999L14 13.5Z" fill="#04A6D6"/>
</svg>
