<svg xmlns="http://www.w3.org/2000/svg" width="24" height="25" viewBox="0 0 24 25"><g transform="translate(4183 -15403)"><rect width="24" height="25" transform="translate(-4183 15403)" fill="none"/><g transform="translate(-4182 15409.5)"><g transform="translate(0 -1.5)"><path d="M10.928,17.386a.546.546,0,0,1-.081-.006,7.109,7.109,0,0,1-3.494-1.456,3.734,3.734,0,0,1-2.09.892,2.551,2.551,0,0,1-2.225-1.277,5.521,5.521,0,0,1-.657-3.193A4.172,4.172,0,0,0,1.8,9.641a1.344,1.344,0,0,0-1.919.054A.542.542,0,0,1-.88,9.612.542.542,0,0,1-.8,8.85,2.976,2.976,0,0,1,.881,8.191a2.087,2.087,0,0,1,1.758.762,5.02,5.02,0,0,1,.826,3.39,4.665,4.665,0,0,0,.474,2.595,1.456,1.456,0,0,0,1.275.8,2.627,2.627,0,0,0,1.35-.576,7.825,7.825,0,0,1-1.354-2.345A6.877,6.877,0,0,1,5.1,7.927,3.16,3.16,0,0,1,6.911,6.2a2.936,2.936,0,0,1,2.282.068,2.612,2.612,0,0,1,1.37,1.538,6.456,6.456,0,0,1-.809,5.269,10.465,10.465,0,0,1-1.585,2.113,6.042,6.042,0,0,0,2.839,1.12.542.542,0,0,1-.079,1.078ZM7.986,7.086a1.952,1.952,0,0,0-.691.128A2.084,2.084,0,0,0,6.086,8.371a5.691,5.691,0,0,0,.138,4.054A6.778,6.778,0,0,0,7.38,14.442,9.293,9.293,0,0,0,8.8,12.553a5.421,5.421,0,0,0,.733-4.4,1.517,1.517,0,0,0-.805-.905A1.745,1.745,0,0,0,7.986,7.086Z" transform="translate(1 -2.266)" fill="#777"/><path d="M19.02,14.157,19,17.4a.055.055,0,0,0,.043.064.054.054,0,0,0,.039-.008l2.948-1.246,5.644-9.157L24.671,5Z" transform="translate(-7.309 -2.35)" fill="#777" fill-rule="evenodd"/><path d="M34.027.31h0A1.686,1.686,0,0,0,31.618.8h0L31,1.777l2.883,2.018.618-.964A1.87,1.87,0,0,0,34.027.31" transform="translate(-12.795 0)" fill="#777" fill-rule="evenodd"/></g></g></g></svg>