<svg xmlns="http://www.w3.org/2000/svg" width="16" height="16" viewBox="0 0 16 16"><g transform="translate(5620 -15844)"><path d="M7.356-2.228a2.75,2.75,0,0,0-.425-1.495,3.283,3.283,0,0,0,.085-.714,2.656,2.656,0,0,0-.731-1.9,2.382,2.382,0,0,0,.731-1.8c0-1.41-.951-2.514-2.871-2.514h-8.6v1.869H4.129c.595,0,.849.255.849.646s-.255.646-.849.646H1.716v1.869H3.551c.9,0,1.308.221,1.41.578A3.714,3.714,0,0,0,4.349-5.1,2.614,2.614,0,0,0,1.5-2.466,2.2,2.2,0,0,0,3.721-.189,1.648,1.648,0,0,0,4.01-.206l.034.068A6.152,6.152,0,0,1,1.071.524,6.152,6.152,0,0,1-1.9-.138l.034-.068a1.554,1.554,0,0,0,.289.017A2.2,2.2,0,0,0,.646-2.466,2.614,2.614,0,0,0-2.208-5.1,2.889,2.889,0,0,0-5.215-2.228c0,2.6,2.5,4.672,6.286,4.672S7.356.371,7.356-2.228Zm-10.482-.1A.862.862,0,0,1-2.208-3.2a.759.759,0,0,1,.8.832.857.857,0,0,1-.883.883A.788.788,0,0,1-3.125-2.33Zm6.676-.034a.759.759,0,0,1,.8-.832.862.862,0,0,1,.917.866.788.788,0,0,1-.832.849A.857.857,0,0,1,3.551-2.364Z" transform="translate(-5612.5 15855.797)" fill="#151414"/><rect width="16" height="16" transform="translate(-5620 15844)" fill="none"/></g></svg>