<svg xmlns="http://www.w3.org/2000/svg" width="20" height="19.999" viewBox="0 0 20 19.999"><path d="M17.1,2.874A10.118,10.118,0,0,0,10.037,0,9.927,9.927,0,0,0,1.413,14.865L0,20l5.279-1.377a10.468,10.468,0,0,0,4.763,1.206A9.924,9.924,0,0,0,17.087,2.907Z" fill="#eceff1"/><path d="M10.411,18.453h-.018A8.4,8.4,0,0,1,5.88,17.124l-3.125.812L3.592,14.9l-.2-.312a8.259,8.259,0,1,1,7.017,3.867Z" transform="translate(-0.355 -0.328)" fill="#4caf50"/><path d="M15.585,12.981l-.007.062c-.251-.125-1.472-.722-1.7-.8-.511-.189-.367-.03-1.347,1.093-.146.162-.291.175-.538.062a6.763,6.763,0,0,1-2-1.237,7.56,7.56,0,0,1-1.383-1.725c-.244-.422.267-.482.732-1.362a.458.458,0,0,0-.021-.437c-.062-.125-.56-1.35-.768-1.838s-.406-.425-.56-.425a1.24,1.24,0,0,0-1.14.287c-1.345,1.478-1.006,3,.145,4.625,2.262,2.96,3.467,3.5,5.67,4.262a3.448,3.448,0,0,0,1.567.1,2.564,2.564,0,0,0,1.68-1.188,2.063,2.063,0,0,0,.15-1.187c-.062-.112-.225-.175-.475-.287Z" transform="translate(-0.996 -1.059)" fill="#fafafa"/></svg>